<svg width="290" height="59" viewBox="0 0 290 59" fill="none" xmlns="http://www.w3.org/2000/svg">
<path d="M9.84121 35.3928C9.44728 35.08 8.95878 34.9104 8.45579 34.9116C8.01537 34.9111 7.58454 35.0402 7.21698 35.2828C6.84942 35.5254 6.56137 35.8708 6.38872 36.276C6.21607 36.6812 6.16646 37.1282 6.24607 37.5613C6.32568 37.9945 6.53098 38.3946 6.83641 38.7119C7.14183 39.0292 7.53387 39.2497 7.96367 39.3457C8.39348 39.4418 8.84206 39.4093 9.25351 39.2522C9.66496 39.0951 10.0211 38.8205 10.2775 38.4624C10.534 38.1044 10.6794 37.6788 10.6957 37.2387C12.1044 36.3928 13.263 35.1877 14.0529 33.7467C14.8427 32.3058 15.2353 30.6808 15.1906 29.0383C15.1458 27.3957 14.6653 25.7945 13.7983 24.3987C12.9312 23.0029 11.7087 21.8626 10.256 21.0947C10.2122 20.591 9.99979 20.1168 9.65323 19.7487C9.30667 19.3805 8.84614 19.14 8.34602 19.0658C7.8459 18.9917 7.33538 19.0883 6.89692 19.34C6.45845 19.5917 6.11763 19.9839 5.9295 20.4532C5.74137 20.9225 5.71692 21.4415 5.86009 21.9264C6.00326 22.4112 6.30569 22.8337 6.71854 23.1256C7.1314 23.4174 7.63058 23.5616 8.13545 23.5348C8.64033 23.508 9.12144 23.3118 9.50108 22.9779C10.5876 23.5942 11.4965 24.4806 12.1399 25.5513C12.7833 26.622 13.1393 27.8407 13.1735 29.0894C13.2077 30.338 12.919 31.5744 12.3352 32.6787C11.7514 33.783 10.8923 34.7179 9.84121 35.3928Z" fill="white"/>
<path d="M9.34343 11.5128C9.56709 11.5138 9.78956 11.4802 10.003 11.4132L19.7093 21.1195C19.6423 21.3329 19.6087 21.5554 19.6097 21.7791C19.6089 22.2565 19.7602 22.7218 20.0415 23.1076C20.3229 23.4933 20.7198 23.7795 21.1747 23.9246C21.6295 24.0697 22.1188 24.0662 22.5716 23.9147C23.0243 23.7631 23.4171 23.4714 23.6929 23.0816C23.9688 22.6919 24.1134 22.2245 24.1059 21.7471C24.0983 21.2697 23.9389 20.8071 23.6509 20.4264C23.3628 20.0456 22.961 19.7664 22.5037 19.6293C22.0463 19.4921 21.5572 19.5041 21.1071 19.6636L11.4589 10.0195C11.6183 9.57051 11.6307 9.08243 11.4942 8.62594C11.3577 8.16945 11.0795 7.76824 10.6998 7.48041C10.3201 7.19258 9.85867 7.03308 9.38228 7.02498C8.9059 7.01689 8.4393 7.16063 8.05005 7.4354C7.6608 7.71016 7.3691 8.10168 7.2172 8.55328C7.0653 9.00487 7.06107 9.49309 7.20513 9.94724C7.3492 10.4014 7.63407 10.7979 8.0185 11.0794C8.40294 11.3608 8.86698 11.5126 9.34343 11.5128" fill="white"/>
<path d="M4.77239 41.1878H4.74751C2.95648 37.4814 2.02621 33.4182 2.02621 29.3017C2.02621 25.1853 2.95648 21.122 4.74751 17.4156H4.80143C5.30507 17.4084 5.79169 17.2323 6.18326 16.9154C6.57484 16.5986 6.84868 16.1595 6.96089 15.6685C7.07309 15.1774 7.01715 14.6629 6.80204 14.2075C6.58693 13.7521 6.22511 13.382 5.7746 13.1568C5.32409 12.9315 4.81098 12.8641 4.31756 12.9653C3.82414 13.0664 3.37898 13.3304 3.05348 13.7148C2.72797 14.0991 2.54098 14.5817 2.52247 15.085C2.50397 15.5884 2.65502 16.0834 2.95142 16.4906C1.00919 20.4872 0 24.8727 0 29.3162C0 33.7597 1.00919 38.1452 2.95142 42.1418C2.65818 42.5501 2.51081 43.0452 2.53303 43.5474C2.55525 44.0497 2.74577 44.5298 3.07393 44.9106C3.40209 45.2914 3.84882 45.5508 4.34224 45.647C4.83567 45.7431 5.3471 45.6705 5.79425 45.4408C6.24141 45.2111 6.5983 44.8377 6.80751 44.3806C7.01671 43.9235 7.06606 43.4093 6.94762 42.9207C6.82919 42.4321 6.54985 41.9976 6.15454 41.6871C5.75924 41.3765 5.27095 41.2079 4.76825 41.2085" fill="white"/>
<path d="M37.4918 10.2436C37.9955 10.1997 38.4697 9.98734 38.8378 9.64078C39.2059 9.29422 39.4465 8.83369 39.5206 8.33357C39.5948 7.83345 39.4982 7.32293 39.2465 6.88446C38.9948 6.446 38.6026 6.10518 38.1333 5.91705C37.664 5.72892 37.145 5.70447 36.6601 5.84764C36.1752 5.99081 35.7527 6.29324 35.4609 6.7061C35.1691 7.11895 35.0249 7.61812 35.0517 8.123C35.0785 8.62788 35.2747 9.10899 35.6086 9.48863C34.9924 10.5744 34.1064 11.4828 33.0363 12.1259C31.9662 12.7691 30.7483 13.1252 29.5003 13.1598C28.2523 13.1944 27.0165 12.9064 25.9124 12.3236C24.8083 11.7408 23.8733 10.8829 23.1978 9.83291C23.5154 9.44065 23.6915 8.95278 23.6977 8.44809C23.7038 7.9434 23.5397 7.45138 23.2317 7.0515C22.9237 6.65162 22.4899 6.36724 22.0004 6.24429C21.5109 6.12134 20.9942 6.16701 20.5339 6.37392C20.0735 6.58082 19.6963 6.93689 19.4633 7.38459C19.2302 7.83228 19.1549 8.34548 19.2495 8.84126C19.344 9.33704 19.603 9.78647 19.9845 10.1169C20.366 10.4474 20.8478 10.6396 21.352 10.6625C22.1981 12.0702 23.4031 13.2279 24.8436 14.017C26.2841 14.8062 27.9084 15.1984 29.5502 15.1537C31.1921 15.109 32.7926 14.6289 34.188 13.7625C35.5834 12.8961 36.7235 11.6745 37.4918 10.2228" fill="white"/>
<path d="M15.1549 7.00816C15.7504 7.00706 16.3212 6.76971 16.7419 6.34821C17.1627 5.92671 17.399 5.3555 17.399 4.75995V4.73506C21.1043 2.94292 25.167 2.01202 29.283 2.01202C33.3989 2.01202 37.4616 2.94292 41.167 4.73506V4.78899C41.1678 5.29035 41.3367 5.77695 41.6468 6.1709C41.9569 6.56486 42.3902 6.84339 42.8774 6.96191C43.3645 7.08043 43.8773 7.03209 44.3338 6.82462C44.7902 6.61716 45.1638 6.26256 45.3948 5.8176C45.6258 5.37264 45.7009 4.86303 45.608 4.37036C45.5151 3.87768 45.2596 3.43042 44.8823 3.10017C44.5051 2.76992 44.028 2.57577 43.5274 2.5488C43.0267 2.52184 42.5315 2.66361 42.121 2.95143C38.1244 1.00919 33.7389 0 29.2954 0C24.8519 0 20.4664 1.00919 16.4698 2.95143C16.1829 2.74478 15.8512 2.60887 15.5018 2.55476C15.1523 2.50065 14.7951 2.52989 14.4591 2.64007C14.1231 2.75026 13.8179 2.93829 13.5684 3.18882C13.3188 3.43936 13.1321 3.74531 13.0232 4.08175C12.9144 4.41818 12.8866 4.77556 12.9421 5.12477C12.9977 5.47398 13.1349 5.80512 13.3427 6.09121C13.5505 6.3773 13.823 6.61023 14.1379 6.77102C14.4528 6.93182 14.8013 7.01591 15.1549 7.01646" fill="white"/>
<path d="M37.471 19.6968C37.2572 19.6316 37.035 19.598 36.8115 19.5973C36.334 19.5965 35.8687 19.7477 35.4829 20.0291C35.0972 20.3105 34.811 20.7073 34.6659 21.1622C34.5208 21.6171 34.5243 22.1063 34.6758 22.5591C34.8274 23.0119 35.1192 23.4046 35.5089 23.6805C35.8986 23.9563 36.366 24.101 36.8434 24.0934C37.3208 24.0858 37.7834 23.9265 38.1642 23.6384C38.5449 23.3504 38.8241 22.9485 38.9613 22.4912C39.0984 22.0339 39.0864 21.5447 38.9269 21.0947L48.5752 11.4465C48.9135 11.5658 49.2756 11.6023 49.631 11.5529C49.9864 11.5035 50.3248 11.3695 50.6177 11.1623C50.9106 10.9551 51.1496 10.6806 51.3146 10.362C51.4796 10.0434 51.5657 9.6898 51.5659 9.33098C51.5659 8.73581 51.3294 8.16503 50.9086 7.74418C50.4877 7.32334 49.917 7.08691 49.3218 7.08691C48.7266 7.08691 48.1558 7.32334 47.735 7.74418C47.3142 8.16503 47.0777 8.73581 47.0777 9.33098C47.0785 9.55451 47.112 9.77672 47.1773 9.99051L37.471 19.6968Z" fill="white"/>
<path d="M58.5968 29.2872C58.5976 24.842 57.5877 20.4549 55.6435 16.4574C55.9387 16.0491 56.088 15.5532 56.0671 15.0498C56.0463 14.5463 55.8566 14.0645 55.5286 13.6819C55.2007 13.2993 54.7535 13.0383 54.2591 12.9408C53.7647 12.8433 53.2519 12.9151 52.8032 13.1446C52.3546 13.374 51.9962 13.7478 51.7858 14.2057C51.5755 14.6636 51.5253 15.1789 51.6435 15.6688C51.7617 16.1587 52.0413 16.5945 52.4373 16.9061C52.8334 17.2177 53.3227 17.3869 53.8266 17.3866H53.8515C55.6426 21.093 56.5728 25.1562 56.5728 29.2726C56.5728 33.3891 55.6426 37.4523 53.8515 41.1587H53.7976C53.2938 41.1576 52.8043 41.3257 52.4075 41.6361C52.0107 41.9465 51.7296 42.3811 51.6094 42.8703C51.4892 43.3595 51.5367 43.8749 51.7444 44.3339C51.9521 44.7928 52.308 45.1687 52.7549 45.4013C53.2017 45.6338 53.7138 45.7095 54.2088 45.6163C54.7039 45.523 55.1533 45.2662 55.4849 44.887C55.8166 44.5078 56.0113 44.0282 56.0377 43.5251C56.0642 43.0221 55.921 42.5247 55.631 42.1128C57.5719 38.1173 58.5803 33.7333 58.5802 29.2913" fill="white"/>
<path d="M48.7578 23.1853C49.154 23.4972 49.6437 23.6666 50.1479 23.6661C50.6522 23.6656 51.1415 23.4954 51.5372 23.1828C51.9328 22.8701 52.2116 22.4334 52.3286 21.9429C52.4457 21.4525 52.3941 20.9369 52.1823 20.4793C51.9705 20.0218 51.6107 19.6488 51.1611 19.4207C50.7114 19.1926 50.198 19.1226 49.7036 19.222C49.2093 19.3214 48.7628 19.5843 48.4362 19.9685C48.1096 20.3526 47.9219 20.8356 47.9033 21.3395C46.4956 22.1856 45.3379 23.3906 44.5488 24.8311C43.7597 26.2716 43.3674 27.8959 43.4121 29.5377C43.4569 31.1796 43.937 32.7801 44.8034 34.1755C45.6697 35.5709 46.8913 36.711 48.343 37.4793C48.3869 37.983 48.5992 38.4572 48.9458 38.8253C49.2924 39.1934 49.7529 39.434 50.253 39.5082C50.7531 39.5823 51.2636 39.4857 51.7021 39.234C52.1406 38.9823 52.4814 38.5901 52.6695 38.1208C52.8577 37.6515 52.8821 37.1325 52.7389 36.6476C52.5958 36.1627 52.2933 35.7402 51.8805 35.4484C51.4676 35.1566 50.9685 35.0124 50.4636 35.0392C49.9587 35.066 49.4776 35.2622 49.0979 35.5961C48.0124 34.9795 47.1043 34.0932 46.4616 33.0229C45.8188 31.9526 45.4631 30.7346 45.4289 29.4866C45.3947 28.2386 45.6832 27.0029 46.2663 25.899C46.8495 24.7952 47.7077 23.8604 48.7578 23.1853" fill="white"/>
<path d="M49.2556 47.057C49.0321 47.058 48.8099 47.0916 48.596 47.1565L38.8897 37.4544C38.9564 37.2409 38.99 37.0185 38.9893 36.7948C38.9928 36.3138 38.8428 35.8442 38.5611 35.4543C38.2794 35.0644 37.8807 34.7745 37.4229 34.6268C36.9651 34.4791 36.4721 34.4813 36.0156 34.633C35.5592 34.7847 35.163 35.0781 34.8847 35.4704C34.6064 35.8628 34.4606 36.3337 34.4683 36.8147C34.4761 37.2956 34.637 37.7616 34.9278 38.1448C35.2186 38.528 35.624 38.8084 36.0851 38.9454C36.5463 39.0823 37.0391 39.0686 37.4918 38.9062L47.1401 48.5544C46.9816 49.0036 46.9702 49.4916 47.1074 49.9477C47.2447 50.4038 47.5235 50.8044 47.9036 51.0916C48.2836 51.3787 48.7452 51.5375 49.2215 51.5448C49.6977 51.5522 50.164 51.4079 50.5528 51.1327C50.9416 50.8575 51.2327 50.4657 51.3841 50.0141C51.5354 49.5624 51.5391 49.0743 51.3947 48.6204C51.2502 48.1665 50.965 47.7704 50.5805 47.4893C50.1959 47.2082 49.7319 47.0568 49.2556 47.057" fill="white"/>
<path d="M37.164 52.3746C37.744 52.3628 38.2969 52.1269 38.7067 51.7164C39.1165 51.3058 39.3514 50.7525 39.3621 50.1725C39.3728 49.5925 39.1586 49.0309 38.7642 48.6055C38.3699 48.1801 37.8261 47.9239 37.247 47.8906C36.4005 46.4831 35.1952 45.3257 33.7545 44.5369C32.3138 43.7482 30.6894 43.3563 29.0475 43.4015C27.4056 43.4466 25.8052 43.9271 24.4101 44.7939C23.0149 45.6607 21.875 46.8825 21.1071 48.3345C20.6046 48.3795 20.1319 48.5925 19.7653 48.9392C19.3987 49.2859 19.1597 49.746 19.0868 50.2453C19.0139 50.7445 19.1113 51.2538 19.3634 51.6909C19.6155 52.1279 20.0076 52.4673 20.4763 52.6541C20.9449 52.841 21.4629 52.8644 21.9465 52.7207C22.4302 52.577 22.8513 52.2744 23.1419 51.862C23.4324 51.4495 23.5755 50.9511 23.548 50.4473C23.5205 49.9435 23.3241 49.4637 22.9903 49.0853C23.6069 47.9997 24.4932 47.0916 25.5635 46.4489C26.6338 45.8061 27.8518 45.4504 29.0998 45.4162C30.3478 45.382 31.5835 45.6705 32.6874 46.2536C33.7913 46.8368 34.726 47.695 35.4011 48.7451C35.1397 49.0756 34.9768 49.4732 34.9312 49.8921C34.8855 50.311 34.959 50.7343 35.1431 51.1133C35.3272 51.4924 35.6145 51.8118 35.972 52.0349C36.3295 52.258 36.7426 52.3758 37.164 52.3746" fill="white"/>
<path d="M43.444 51.5701C43.149 51.5707 42.857 51.6294 42.5846 51.7429C42.3123 51.8565 42.065 52.0226 41.857 52.2318C41.6489 52.441 41.4842 52.6892 41.3722 52.9622C41.2601 53.2351 41.203 53.5275 41.2041 53.8225V53.8225C37.4984 55.6135 33.4359 56.5437 29.3201 56.5437C25.2043 56.5437 21.1418 55.6135 17.4361 53.8225V53.8225C17.4372 53.3187 17.2691 52.8292 16.9587 52.4324C16.6484 52.0356 16.2137 51.7546 15.7245 51.6343C15.2353 51.5141 14.7199 51.5616 14.2609 51.7693C13.802 51.977 13.4261 52.3329 13.1936 52.7798C12.961 53.2266 12.8853 53.7387 12.9786 54.2337C13.0718 54.7288 13.3286 55.1782 13.7078 55.5098C14.087 55.8415 14.5666 56.0362 15.0697 56.0627C15.5728 56.0891 16.0702 55.9459 16.4821 55.6559C20.4779 57.6008 24.8637 58.6115 29.3077 58.6115C33.7517 58.6115 38.1375 57.6008 42.1333 55.6559C42.42 55.8638 42.7518 56.0008 43.1017 56.0559C43.4515 56.1109 43.8094 56.0824 44.1461 55.9726C44.4828 55.8628 44.7887 55.6749 45.0389 55.4243C45.289 55.1736 45.4763 54.8673 45.5854 54.5304C45.6945 54.1935 45.7223 53.8355 45.6665 53.4858C45.6108 53.1361 45.4731 52.8045 45.2646 52.5182C45.0562 52.2319 44.7829 51.999 44.4672 51.8386C44.1515 51.6781 43.8023 51.5947 43.4482 51.595" fill="white"/>
<path d="M21.1363 38.8895C21.3501 38.9548 21.5723 38.9883 21.7959 38.9891C22.2733 38.9899 22.7386 38.8386 23.1244 38.5573C23.5101 38.2759 23.7963 37.879 23.9414 37.4242C24.0865 36.9693 24.083 36.48 23.9315 36.0273C23.7799 35.5745 23.4882 35.1817 23.0984 34.9059C22.7087 34.63 22.2413 34.4854 21.7639 34.493C21.2865 34.5005 20.8239 34.6599 20.4432 34.9479C20.0624 35.236 19.7832 35.6378 19.6461 36.0952C19.5089 36.5525 19.5209 37.0416 19.6804 37.4917L10.0322 47.1316C9.58433 46.9743 9.09809 46.9633 8.64361 47.1002C8.18912 47.2371 7.78987 47.5149 7.50347 47.8934C7.21707 48.2719 7.05833 48.7317 7.05014 49.2062C7.04195 49.6808 7.18474 50.1458 7.4579 50.534C7.73107 50.9221 8.12049 51.2135 8.56999 51.366C9.01948 51.5186 9.50581 51.5243 9.9588 51.3826C10.4118 51.2408 10.808 50.9587 11.0904 50.5772C11.3727 50.1956 11.5265 49.7342 11.5296 49.2595C11.5285 49.036 11.495 48.8139 11.43 48.6L21.1363 38.8895Z" fill="white"/>
<path d="M29.2994 25.2012C28.4911 25.2012 27.701 25.4409 27.029 25.89C26.357 26.3392 25.8334 26.9775 25.5242 27.7243C25.2151 28.4712 25.1344 29.2929 25.2924 30.0856C25.4504 30.8782 25.84 31.6063 26.4118 32.1775C26.9836 32.7487 27.712 33.1375 28.5048 33.2947C29.2977 33.4519 30.1193 33.3704 30.8658 33.0605C31.6123 32.7506 32.2502 32.2263 32.6986 31.5539C33.1471 30.8814 33.386 30.0911 33.3852 29.2828C33.3841 28.1999 32.9531 27.1617 32.187 26.3964C31.4209 25.6311 30.3823 25.2012 29.2994 25.2012Z" fill="white"/>
<path d="M87.1846 15.5198H80.9917V43.1205H87.1846V15.5198Z" fill="white"/>
<path d="M91.366 15.5198H111.081C116.471 15.5198 120.546 15.9069 123.306 16.6812C126.065 17.4555 128.001 18.8091 129.113 20.7421C130.219 22.6778 130.772 25.5372 130.772 29.3201C130.772 33.1031 130.219 35.968 129.113 37.9148C128.007 39.8505 126.081 41.2041 123.335 41.9757C120.589 42.7472 116.507 43.1288 111.09 43.1205H91.366V15.5198ZM111.081 37.3216C114.676 37.3216 117.417 37.1115 119.303 36.6911C121.189 36.2708 122.537 35.4965 123.347 34.3683C124.16 33.2372 124.575 31.5545 124.591 29.3201C124.608 27.0858 124.193 25.41 123.347 24.2928C122.517 23.1728 121.169 22.4027 119.303 21.9823C117.436 21.562 114.696 21.3519 111.081 21.3519C111.001 21.327 106.494 21.3145 97.5589 21.3145V37.3216H111.081Z" fill="white"/>
<path d="M142.569 34.9159C143.678 36.124 145.166 36.9172 146.787 37.1641C148.484 37.4544 153.669 37.5789 153.669 37.5789L165.959 37.554V32.7299H151.226V26.9227H172.165V43.0999C172.165 43.0999 160.7 43.3736 154.42 43.3736C152.317 43.3736 150.438 43.3321 148.778 43.2367C147.163 43.1505 145.556 42.9467 143.971 42.627C141.446 42.1265 139.51 41.3052 138.164 40.1631C136.823 39.0414 135.863 37.5312 135.418 35.8409C134.898 33.6682 134.661 31.4375 134.713 29.2041C134.662 26.9707 134.899 24.7401 135.418 22.5673C135.865 20.8787 136.824 19.3701 138.164 18.2492C139.516 17.1099 141.452 16.2886 143.971 15.7853C145.557 15.4677 147.163 15.2639 148.778 15.1756C150.438 15.0843 146.675 15.1756 148.778 15.1756C155.063 15.1756 172.165 15.4742 172.165 15.4742V21.2814H146.787C145.167 21.5299 143.679 22.3228 142.569 23.5296C141.463 24.7353 140.91 26.6282 140.91 29.2082C140.91 31.7883 141.463 33.6798 142.569 34.8827" fill="white"/>
<path d="M182.692 15.5199H204.341C205.867 15.478 207.362 15.9563 208.58 16.8763C209.77 17.81 210.684 19.0504 211.222 20.4643C211.814 21.9642 212.113 23.5639 212.101 25.1764C212.13 27.2742 211.606 29.3426 210.583 31.1744C210.144 32.0084 209.537 32.743 208.801 33.3324C208.066 33.9219 207.217 34.3536 206.307 34.6006L212.89 43.1206H205.05L198.662 34.8246H182.692V43.1206H176.503V15.5199H182.692ZM202.843 29.0423C203.293 29.0628 203.741 28.9685 204.144 28.7682C204.548 28.5679 204.894 28.2683 205.149 27.8975C205.677 27.0887 205.958 26.144 205.958 25.1785C205.958 24.2129 205.677 23.2682 205.149 22.4595C204.895 22.0878 204.549 21.7875 204.145 21.5871C203.742 21.3867 203.293 21.2929 202.843 21.3146H182.692V29.0423H202.843Z" fill="white"/>
<path d="M216.843 15.5156H250.952V21.3145H223.036V26.5202H249.019V32.315H223.036V37.3216H250.952V43.1205H216.843V15.5156Z" fill="white"/>
<path d="M254.896 15.5156H289.005V21.3145H261.085V26.5202H287.072V32.315H261.085V37.3216H289.005V43.1205H254.896V15.5156Z" fill="white"/>
</svg>
