<svg width="290" height="59" viewBox="0 0 290 59" fill="none" xmlns="http://www.w3.org/2000/svg">
<path d="M9.84121 35.3929C9.44728 35.0801 8.95878 34.9105 8.45579 34.9117C8.01537 34.9112 7.58454 35.0403 7.21698 35.2829C6.84942 35.5255 6.56137 35.8709 6.38872 36.2761C6.21607 36.6812 6.16646 37.1282 6.24607 37.5614C6.32568 37.9946 6.53098 38.3947 6.83641 38.712C7.14183 39.0293 7.53387 39.2497 7.96367 39.3458C8.39348 39.4419 8.84206 39.4093 9.25351 39.2523C9.66496 39.0952 10.0211 38.8205 10.2775 38.4625C10.534 38.1044 10.6794 37.6789 10.6957 37.2387C12.1044 36.3928 13.263 35.1877 14.0529 33.7468C14.8427 32.3059 15.2353 30.6809 15.1906 29.0383C15.1458 27.3958 14.6653 25.7946 13.7983 24.3988C12.9312 23.003 11.7087 21.8627 10.256 21.0947C10.2122 20.5911 9.99979 20.1169 9.65323 19.7487C9.30667 19.3806 8.84614 19.14 8.34602 19.0659C7.8459 18.9917 7.33538 19.0883 6.89692 19.3401C6.45845 19.5918 6.11763 19.984 5.9295 20.4532C5.74137 20.9225 5.71692 21.4415 5.86009 21.9264C6.00326 22.4113 6.30569 22.8338 6.71854 23.1256C7.1314 23.4175 7.63058 23.5616 8.13545 23.5348C8.64033 23.508 9.12144 23.3118 9.50108 22.9779C10.5876 23.5943 11.4965 24.4807 12.1399 25.5514C12.7833 26.6221 13.1393 27.8408 13.1735 29.0895C13.2077 30.3381 12.919 31.5745 12.3352 32.6788C11.7514 33.7831 10.8923 34.718 9.84121 35.3929Z" fill="#72C7DB"/>
<path d="M9.34343 11.5129C9.56709 11.5139 9.78956 11.4803 10.003 11.4133L19.7093 21.1196C19.6423 21.333 19.6087 21.5555 19.6097 21.7792C19.6089 22.2566 19.7602 22.7219 20.0415 23.1077C20.3229 23.4934 20.7198 23.7796 21.1747 23.9247C21.6295 24.0698 22.1188 24.0663 22.5716 23.9148C23.0243 23.7632 23.4171 23.4715 23.6929 23.0817C23.9688 22.692 24.1134 22.2246 24.1059 21.7472C24.0983 21.2698 23.9389 20.8072 23.6509 20.4264C23.3628 20.0457 22.961 19.7665 22.5037 19.6294C22.0463 19.4922 21.5572 19.5042 21.1071 19.6637L11.4589 10.0196C11.6183 9.57061 11.6307 9.08252 11.4942 8.62603C11.3577 8.16954 11.0795 7.76833 10.6998 7.48051C10.3201 7.19268 9.85867 7.03317 9.38228 7.02508C8.9059 7.01698 8.4393 7.16072 8.05005 7.43549C7.6608 7.71025 7.3691 8.10178 7.2172 8.55337C7.0653 9.00496 7.06107 9.49318 7.20513 9.94733C7.3492 10.4015 7.63407 10.798 8.0185 11.0795C8.40294 11.3609 8.86698 11.5127 9.34343 11.5129" fill="#72C7DB"/>
<path d="M4.77239 41.1877H4.74751C2.95648 37.4813 2.02621 33.4181 2.02621 29.3016C2.02621 25.1852 2.95648 21.1219 4.74751 17.4155H4.80143C5.30507 17.4083 5.79169 17.2322 6.18326 16.9153C6.57484 16.5985 6.84868 16.1594 6.96089 15.6684C7.07309 15.1773 7.01715 14.6629 6.80204 14.2074C6.58693 13.752 6.22511 13.3819 5.7746 13.1567C5.32409 12.9314 4.81098 12.864 4.31756 12.9652C3.82414 13.0663 3.37898 13.3303 3.05348 13.7147C2.72797 14.099 2.54098 14.5816 2.52247 15.085C2.50397 15.5883 2.65502 16.0833 2.95142 16.4905C1.00919 20.4871 0 24.8726 0 29.3161C0 33.7596 1.00919 38.1451 2.95142 42.1417C2.65818 42.55 2.51081 43.0451 2.53303 43.5473C2.55525 44.0496 2.74577 44.5297 3.07393 44.9105C3.40209 45.2913 3.84882 45.5507 4.34224 45.6469C4.83567 45.743 5.3471 45.6704 5.79425 45.4407C6.24141 45.211 6.5983 44.8376 6.80751 44.3805C7.01671 43.9234 7.06606 43.4092 6.94762 42.9206C6.82919 42.4321 6.54985 41.9975 6.15454 41.687C5.75924 41.3764 5.27095 41.2079 4.76825 41.2084" fill="#72C7DB"/>
<path d="M37.4918 10.2436C37.9955 10.1997 38.4697 9.98737 38.8378 9.64081C39.2059 9.29425 39.4465 8.83372 39.5206 8.3336C39.5948 7.83348 39.4982 7.32296 39.2465 6.88449C38.9948 6.44603 38.6026 6.10521 38.1333 5.91708C37.664 5.72895 37.145 5.7045 36.6601 5.84767C36.1752 5.99083 35.7527 6.29327 35.4609 6.70613C35.1691 7.11898 35.0249 7.61815 35.0517 8.12303C35.0785 8.62791 35.2747 9.10902 35.6086 9.48866C34.9924 10.5745 34.1064 11.4828 33.0363 12.126C31.9662 12.7691 30.7483 13.1252 29.5003 13.1598C28.2523 13.1944 27.0165 12.9064 25.9124 12.3236C24.8083 11.7408 23.8733 10.8829 23.1978 9.83294C23.5154 9.44068 23.6915 8.9528 23.6977 8.44812C23.7038 7.94343 23.5397 7.45141 23.2317 7.05153C22.9237 6.65165 22.4899 6.36726 22.0004 6.24432C21.5109 6.12137 20.9942 6.16704 20.5339 6.37395C20.0735 6.58085 19.6963 6.93692 19.4633 7.38461C19.2302 7.83231 19.1549 8.3455 19.2495 8.84129C19.344 9.33707 19.603 9.7865 19.9845 10.117C20.366 10.4474 20.8478 10.6396 21.352 10.6625C22.1981 12.0703 23.4031 13.2279 24.8436 14.0171C26.2841 14.8062 27.9084 15.1985 29.5502 15.1537C31.1921 15.109 32.7926 14.6289 34.188 13.7625C35.5834 12.8961 36.7235 11.6746 37.4918 10.2229" fill="#72C7DB"/>
<path d="M15.1549 7.00816C15.7504 7.00706 16.3212 6.76971 16.7419 6.34821C17.1627 5.92671 17.399 5.3555 17.399 4.75995V4.73506C21.1043 2.94292 25.167 2.01202 29.283 2.01202C33.3989 2.01202 37.4616 2.94292 41.167 4.73506V4.78899C41.1678 5.29035 41.3367 5.77695 41.6468 6.1709C41.9569 6.56486 42.3902 6.84339 42.8774 6.96191C43.3645 7.08043 43.8773 7.03209 44.3338 6.82462C44.7902 6.61716 45.1638 6.26256 45.3948 5.8176C45.6258 5.37264 45.7009 4.86303 45.608 4.37036C45.5151 3.87768 45.2596 3.43042 44.8823 3.10017C44.5051 2.76992 44.028 2.57577 43.5274 2.5488C43.0267 2.52184 42.5315 2.66361 42.121 2.95143C38.1244 1.00919 33.7389 0 29.2954 0C24.8519 0 20.4664 1.00919 16.4698 2.95143C16.1829 2.74478 15.8512 2.60887 15.5018 2.55476C15.1523 2.50065 14.7951 2.52989 14.4591 2.64007C14.1231 2.75026 13.8179 2.93829 13.5684 3.18882C13.3188 3.43936 13.1321 3.74531 13.0232 4.08175C12.9144 4.41818 12.8866 4.77556 12.9421 5.12477C12.9977 5.47398 13.1349 5.80512 13.3427 6.09121C13.5505 6.3773 13.823 6.61023 14.1379 6.77102C14.4528 6.93182 14.8013 7.01591 15.1549 7.01646" fill="#72C7DB"/>
<path d="M37.471 19.6969C37.2572 19.6317 37.035 19.5981 36.8115 19.5974C36.334 19.5966 35.8687 19.7478 35.4829 20.0292C35.0972 20.3106 34.811 20.7074 34.6659 21.1623C34.5208 21.6172 34.5243 22.1065 34.6758 22.5592C34.8274 23.012 35.1192 23.4048 35.5089 23.6806C35.8986 23.9565 36.366 24.1011 36.8434 24.0935C37.3208 24.086 37.7834 23.9266 38.1642 23.6385C38.5449 23.3505 38.8241 22.9487 38.9613 22.4913C39.0984 22.034 39.0864 21.5449 38.9269 21.0948L48.5752 11.4466C48.9135 11.566 49.2756 11.6025 49.631 11.553C49.9864 11.5036 50.3248 11.3696 50.6177 11.1624C50.9106 10.9552 51.1496 10.6808 51.3146 10.3621C51.4796 10.0435 51.5657 9.68992 51.5659 9.33109C51.5659 8.73593 51.3294 8.16515 50.9086 7.7443C50.4877 7.32346 49.917 7.08703 49.3218 7.08703C48.7266 7.08703 48.1558 7.32346 47.735 7.7443C47.3142 8.16515 47.0777 8.73593 47.0777 9.33109C47.0785 9.55462 47.112 9.77683 47.1773 9.99063L37.471 19.6969Z" fill="#72C7DB"/>
<path d="M58.5968 29.2871C58.5976 24.8419 57.5877 20.4548 55.6435 16.4574C55.9387 16.049 56.088 15.5532 56.0671 15.0497C56.0463 14.5462 55.8566 14.0644 55.5286 13.6818C55.2007 13.2993 54.7535 13.0382 54.2591 12.9408C53.7647 12.8433 53.2519 12.9151 52.8032 13.1445C52.3546 13.3739 51.9962 13.7477 51.7858 14.2056C51.5755 14.6635 51.5253 15.1789 51.6435 15.6687C51.7617 16.1586 52.0413 16.5944 52.4373 16.906C52.8334 17.2176 53.3227 17.3869 53.8266 17.3865H53.8515C55.6426 21.0929 56.5728 25.1561 56.5728 29.2726C56.5728 33.389 55.6426 37.4523 53.8515 41.1587H53.7976C53.2938 41.1575 52.8043 41.3257 52.4075 41.636C52.0107 41.9464 51.7296 42.3811 51.6094 42.8703C51.4892 43.3595 51.5367 43.8749 51.7444 44.3338C51.9521 44.7928 52.308 45.1687 52.7549 45.4012C53.2017 45.6338 53.7138 45.7095 54.2088 45.6162C54.7039 45.523 55.1533 45.2661 55.4849 44.8869C55.8166 44.5077 56.0113 44.0281 56.0377 43.5251C56.0642 43.022 55.921 42.5246 55.631 42.1127C57.5719 38.1172 58.5803 33.7332 58.5802 29.2912" fill="#72C7DB"/>
<path d="M48.7578 23.1853C49.154 23.4972 49.6437 23.6666 50.1479 23.6661C50.6522 23.6657 51.1415 23.4954 51.5372 23.1828C51.9328 22.8702 52.2116 22.4334 52.3286 21.943C52.4457 21.4525 52.3941 20.9369 52.1823 20.4793C51.9705 20.0218 51.6107 19.6489 51.1611 19.4207C50.7114 19.1926 50.198 19.1226 49.7036 19.222C49.2093 19.3214 48.7628 19.5843 48.4362 19.9685C48.1096 20.3526 47.9219 20.8356 47.9033 21.3395C46.4956 22.1856 45.3379 23.3906 44.5488 24.8311C43.7597 26.2716 43.3674 27.8959 43.4121 29.5377C43.4569 31.1796 43.937 32.7801 44.8034 34.1755C45.6697 35.5709 46.8913 36.711 48.343 37.4793C48.3869 37.983 48.5992 38.4572 48.9458 38.8253C49.2924 39.1934 49.7529 39.434 50.253 39.5082C50.7531 39.5823 51.2636 39.4857 51.7021 39.234C52.1406 38.9823 52.4814 38.5901 52.6695 38.1208C52.8577 37.6515 52.8821 37.1325 52.7389 36.6476C52.5958 36.1627 52.2933 35.7403 51.8805 35.4484C51.4676 35.1566 50.9685 35.0124 50.4636 35.0392C49.9587 35.066 49.4776 35.2622 49.0979 35.5961C48.0124 34.9795 47.1043 34.0932 46.4616 33.0229C45.8188 31.9526 45.4631 30.7346 45.4289 29.4866C45.3947 28.2386 45.6832 27.0029 46.2663 25.899C46.8495 24.7952 47.7077 23.8605 48.7578 23.1853" fill="#72C7DB"/>
<path d="M49.2556 47.0571C49.0321 47.0581 48.8099 47.0916 48.596 47.1566L38.8897 37.4545C38.9564 37.241 38.99 37.0186 38.9893 36.7949C38.9928 36.3139 38.8428 35.8443 38.5611 35.4544C38.2794 35.0645 37.8807 34.7746 37.4229 34.6269C36.9651 34.4792 36.4721 34.4813 36.0156 34.6331C35.5592 34.7848 35.163 35.0782 34.8847 35.4705C34.6064 35.8629 34.4606 36.3338 34.4683 36.8147C34.4761 37.2957 34.637 37.7617 34.9278 38.1449C35.2186 38.5281 35.624 38.8085 36.0851 38.9454C36.5463 39.0824 37.0391 39.0686 37.4918 38.9063L47.1401 48.5545C46.9816 49.0037 46.9702 49.4917 47.1074 49.9478C47.2447 50.4039 47.5235 50.8045 47.9036 51.0917C48.2836 51.3788 48.7452 51.5375 49.2215 51.5449C49.6977 51.5523 50.164 51.408 50.5528 51.1328C50.9416 50.8576 51.2327 50.4658 51.3841 50.0141C51.5354 49.5625 51.5391 49.0744 51.3947 48.6205C51.2502 48.1666 50.965 47.7705 50.5805 47.4894C50.1959 47.2083 49.7319 47.0569 49.2556 47.0571" fill="#72C7DB"/>
<path d="M37.164 52.3747C37.744 52.363 38.2969 52.127 38.7067 51.7165C39.1165 51.3059 39.3514 50.7526 39.3621 50.1727C39.3728 49.5927 39.1586 49.0311 38.7642 48.6056C38.3699 48.1802 37.8261 47.924 37.247 47.8908C36.4005 46.4832 35.1952 45.3258 33.7545 44.5371C32.3138 43.7483 30.6894 43.3564 29.0475 43.4016C27.4056 43.4467 25.8052 43.9273 24.4101 44.794C23.0149 45.6608 21.875 46.8827 21.1071 48.3346C20.6046 48.3796 20.1319 48.5926 19.7653 48.9393C19.3987 49.286 19.1597 49.7462 19.0868 50.2454C19.0139 50.7447 19.1113 51.2539 19.3634 51.691C19.6155 52.128 20.0076 52.4674 20.4763 52.6542C20.9449 52.8411 21.4629 52.8645 21.9465 52.7208C22.4302 52.5771 22.8513 52.2746 23.1419 51.8621C23.4324 51.4496 23.5755 50.9512 23.548 50.4474C23.5205 49.9436 23.3241 49.4638 22.9903 49.0854C23.6069 47.9998 24.4932 47.0918 25.5635 46.449C26.6338 45.8062 27.8518 45.4506 29.0998 45.4164C30.3478 45.3822 31.5835 45.6706 32.6874 46.2538C33.7913 46.8369 34.726 47.6951 35.4011 48.7452C35.1397 49.0758 34.9768 49.4733 34.9312 49.8922C34.8855 50.3111 34.959 50.7344 35.1431 51.1135C35.3272 51.4925 35.6145 51.8119 35.972 52.035C36.3295 52.2582 36.7426 52.3759 37.164 52.3747" fill="#72C7DB"/>
<path d="M43.444 51.5701C43.149 51.5706 42.857 51.6294 42.5846 51.7429C42.3123 51.8564 42.065 52.0226 41.857 52.2318C41.6489 52.441 41.4842 52.6892 41.3722 52.9621C41.2601 53.2351 41.203 53.5274 41.2041 53.8225V53.8225C37.4984 55.6134 33.4359 56.5437 29.3201 56.5437C25.2043 56.5437 21.1418 55.6134 17.4361 53.8225V53.8225C17.4372 53.3187 17.2691 52.8292 16.9587 52.4324C16.6484 52.0356 16.2137 51.7545 15.7245 51.6343C15.2353 51.514 14.7199 51.5616 14.2609 51.7693C13.802 51.977 13.4261 52.3328 13.1936 52.7797C12.961 53.2266 12.8853 53.7386 12.9786 54.2337C13.0718 54.7288 13.3286 55.1781 13.7078 55.5098C14.087 55.8414 14.5666 56.0361 15.0697 56.0626C15.5728 56.0891 16.0702 55.9459 16.4821 55.6559C20.4779 57.6008 24.8637 58.6115 29.3077 58.6115C33.7517 58.6115 38.1375 57.6008 42.1333 55.6559C42.42 55.8637 42.7518 56.0008 43.1017 56.0558C43.4515 56.1109 43.8094 56.0824 44.1461 55.9726C44.4828 55.8628 44.7887 55.6749 45.0389 55.4242C45.289 55.1736 45.4763 54.8673 45.5854 54.5303C45.6945 54.1934 45.7223 53.8355 45.6665 53.4858C45.6108 53.136 45.4731 52.8045 45.2646 52.5182C45.0562 52.2319 44.7829 51.999 44.4672 51.8385C44.1515 51.6781 43.8023 51.5946 43.4482 51.595" fill="#72C7DB"/>
<path d="M21.1363 38.8896C21.3501 38.9549 21.5723 38.9884 21.7959 38.9892C22.2733 38.99 22.7386 38.8387 23.1244 38.5573C23.5101 38.276 23.7963 37.8791 23.9414 37.4242C24.0865 36.9694 24.083 36.4801 23.9315 36.0273C23.7799 35.5746 23.4882 35.1818 23.0984 34.9059C22.7087 34.6301 22.2413 34.4855 21.7639 34.493C21.2865 34.5006 20.8239 34.66 20.4432 34.948C20.0624 35.2361 19.7832 35.6379 19.6461 36.0952C19.5089 36.5526 19.5209 37.0417 19.6804 37.4917L10.0322 47.1317C9.58433 46.9743 9.09809 46.9633 8.64361 47.1003C8.18912 47.2372 7.78987 47.515 7.50347 47.8935C7.21707 48.272 7.05833 48.7317 7.05014 49.2063C7.04195 49.6809 7.18474 50.1458 7.4579 50.534C7.73107 50.9222 8.12049 51.2136 8.56999 51.3661C9.01948 51.5186 9.50581 51.5244 9.9588 51.3826C10.4118 51.2408 10.808 50.9588 11.0904 50.5772C11.3727 50.1957 11.5265 49.7343 11.5296 49.2596C11.5285 49.0361 11.495 48.8139 11.43 48.6001L21.1363 38.8896Z" fill="#72C7DB"/>
<path d="M29.2994 25.2013C28.4911 25.2013 27.701 25.441 27.029 25.8902C26.357 26.3393 25.8334 26.9776 25.5242 27.7245C25.2151 28.4713 25.1344 29.293 25.2924 30.0857C25.4504 30.8784 25.84 31.6064 26.4118 32.1776C26.9836 32.7488 27.712 33.1376 28.5048 33.2948C29.2977 33.452 30.1193 33.3705 30.8658 33.0606C31.6123 32.7508 32.2502 32.2264 32.6986 31.554C33.1471 30.8815 33.386 30.0912 33.3852 29.2829C33.3841 28.2 32.9531 27.1618 32.187 26.3965C31.4209 25.6312 30.3823 25.2013 29.2994 25.2013Z" fill="#72C7DB"/>
<path d="M87.1846 15.5198H80.9917V43.1206H87.1846V15.5198Z" fill="#348AAE"/>
<path d="M91.366 15.5198H111.081C116.471 15.5198 120.546 15.907 123.306 16.6813C126.065 17.4556 128.001 18.8092 129.113 20.7422C130.219 22.6779 130.772 25.5372 130.772 29.3202C130.772 33.1032 130.219 35.9681 129.113 37.9148C128.007 39.8506 126.081 41.2042 123.335 41.9757C120.589 42.7473 116.507 43.1289 111.09 43.1206H91.366V15.5198ZM111.081 37.3217C114.676 37.3217 117.417 37.1115 119.303 36.6912C121.189 36.2709 122.537 35.4966 123.347 34.3683C124.16 33.2373 124.575 31.5546 124.591 29.3202C124.608 27.0858 124.193 25.41 123.347 24.2928C122.517 23.1729 121.169 22.4027 119.303 21.9824C117.436 21.5621 114.696 21.3519 111.081 21.3519C111.001 21.327 106.494 21.3146 97.5589 21.3146V37.3217H111.081Z" fill="#348AAE"/>
<path d="M142.569 34.9159C143.678 36.124 145.166 36.9172 146.787 37.1641C148.484 37.4544 153.669 37.5789 153.669 37.5789L165.959 37.554V32.7299H151.226V26.9227H172.165V43.0999C172.165 43.0999 160.7 43.3736 154.42 43.3736C152.317 43.3736 150.438 43.3321 148.778 43.2367C147.163 43.1505 145.556 42.9467 143.971 42.627C141.446 42.1265 139.51 41.3052 138.164 40.1631C136.823 39.0414 135.863 37.5312 135.418 35.8409C134.898 33.6682 134.661 31.4375 134.713 29.2041C134.662 26.9707 134.899 24.7401 135.418 22.5673C135.865 20.8787 136.824 19.3701 138.164 18.2492C139.516 17.1099 141.452 16.2886 143.971 15.7853C145.557 15.4677 147.163 15.2639 148.778 15.1756C150.438 15.0843 146.675 15.1756 148.778 15.1756C155.063 15.1756 172.165 15.4742 172.165 15.4742V21.2814H146.787C145.167 21.5299 143.679 22.3228 142.569 23.5296C141.463 24.7353 140.91 26.6282 140.91 29.2082C140.91 31.7883 141.463 33.6798 142.569 34.8827" fill="#72C7DB"/>
<path d="M182.692 15.5198H204.341C205.867 15.4779 207.362 15.9562 208.58 16.8762C209.77 17.8099 210.684 19.0504 211.222 20.4642C211.814 21.9641 212.113 23.5638 212.101 25.1764C212.13 27.2742 211.606 29.3426 210.583 31.1744C210.144 32.0084 209.537 32.743 208.801 33.3324C208.066 33.9219 207.217 34.3535 206.307 34.6006L212.89 43.1206H205.05L198.662 34.8246H182.692V43.1206H176.503V15.5198H182.692ZM202.843 29.0423C203.293 29.0628 203.741 28.9685 204.144 28.7682C204.548 28.5679 204.894 28.2683 205.149 27.8974C205.677 27.0887 205.958 26.144 205.958 25.1784C205.958 24.2129 205.677 23.2682 205.149 22.4594C204.895 22.0878 204.549 21.7875 204.145 21.5871C203.742 21.3867 203.293 21.2929 202.843 21.3146H182.692V29.0423H202.843Z" fill="#72C7DB"/>
<path d="M216.843 15.5157H250.952V21.3146H223.036V26.5203H249.019V32.3151H223.036V37.3217H250.952V43.1206H216.843V15.5157Z" fill="#72C7DB"/>
<path d="M254.896 15.5157H289.005V21.3146H261.085V26.5203H287.072V32.3151H261.085V37.3217H289.005V43.1206H254.896V15.5157Z" fill="#72C7DB"/>
</svg>
