<svg width="70" height="94" viewBox="0 0 70 94" fill="none" xmlns="http://www.w3.org/2000/svg">
<g clip-path="url(#clip0_136_38)">
<path d="M8.81489 90.4004H8.68949C8.67992 90.3996 8.67028 90.4007 8.66117 90.4038C8.65207 90.4068 8.64371 90.4118 8.63663 90.4183C8.62954 90.4248 8.62389 90.4327 8.62004 90.4415C8.61619 90.4503 8.61422 90.4598 8.61426 90.4694V93.1533C8.61422 93.1629 8.61619 93.1725 8.62004 93.1813C8.62389 93.1901 8.62954 93.198 8.63663 93.2045C8.64371 93.211 8.65207 93.2159 8.66117 93.219C8.67028 93.222 8.67992 93.2232 8.68949 93.2223H8.81489C8.82446 93.2232 8.8341 93.222 8.84321 93.219C8.85231 93.2159 8.86067 93.211 8.86776 93.2045C8.87484 93.198 8.88049 93.1901 8.88434 93.1813C8.88819 93.1725 8.89016 93.1629 8.89012 93.1533V90.4694C8.89016 90.4598 8.88819 90.4503 8.88434 90.4415C8.88049 90.4327 8.87484 90.4248 8.86776 90.4183C8.86067 90.4118 8.85231 90.4068 8.84321 90.4038C8.8341 90.4007 8.82446 90.3996 8.81489 90.4004Z" fill="white"/>
<path d="M9.9876 90.4005H9.85594C9.84664 90.3995 9.83724 90.4006 9.82842 90.4037C9.81961 90.4068 9.8116 90.4119 9.80498 90.4185C9.79837 90.4251 9.79333 90.4331 9.79021 90.4419C9.7871 90.4508 9.78598 90.4602 9.78697 90.4695V93.1534C9.78598 93.1627 9.7871 93.1721 9.79021 93.1809C9.79333 93.1897 9.79837 93.1977 9.80498 93.2044C9.8116 93.211 9.81961 93.216 9.82842 93.2191C9.83724 93.2223 9.84664 93.2234 9.85594 93.2224H9.9876C9.9969 93.2234 10.0063 93.2223 10.0151 93.2191C10.0239 93.216 10.0319 93.211 10.0386 93.2044C10.0452 93.1977 10.0502 93.1897 10.0533 93.1809C10.0565 93.1721 10.0576 93.1627 10.0566 93.1534V90.4695C10.0576 90.4602 10.0565 90.4508 10.0533 90.4419C10.0502 90.4331 10.0452 90.4251 10.0386 90.4185C10.0319 90.4119 10.0239 90.4068 10.0151 90.4037C10.0063 90.4006 9.9969 90.3995 9.9876 90.4005Z" fill="white"/>
<path d="M12.7523 91.1467C12.6485 91.1437 12.5454 91.1652 12.4513 91.2094C12.3862 91.2462 12.327 91.2927 12.2758 91.3473V91.247C12.2767 91.2374 12.2755 91.2278 12.2725 91.2187C12.2694 91.2096 12.2644 91.2012 12.258 91.1941C12.2515 91.187 12.2436 91.1814 12.2348 91.1775C12.226 91.1737 12.2164 91.1717 12.2068 91.1717H12.0752C12.0656 91.1717 12.0561 91.1737 12.0473 91.1775C12.0384 91.1814 12.0305 91.187 12.0241 91.1941C12.0176 91.2012 12.0126 91.2096 12.0095 91.2187C12.0065 91.2278 12.0053 91.2374 12.0062 91.247V93.1282C12.0052 93.1375 12.0063 93.147 12.0094 93.1558C12.0126 93.1646 12.0176 93.1726 12.0242 93.1792C12.0308 93.1858 12.0388 93.1909 12.0477 93.194C12.0565 93.1971 12.0659 93.1982 12.0752 93.1972H12.2068C12.2161 93.1982 12.2255 93.1971 12.2344 93.194C12.2432 93.1909 12.2512 93.1858 12.2578 93.1792C12.2644 93.1726 12.2694 93.1646 12.2726 93.1558C12.2757 93.147 12.2768 93.1375 12.2758 93.1282V91.8365C12.2714 91.7107 12.3139 91.5878 12.3949 91.4916C12.4333 91.4504 12.48 91.418 12.5318 91.3963C12.5837 91.3747 12.6397 91.3644 12.6959 91.3661C12.7512 91.3641 12.8063 91.3742 12.8572 91.3959C12.9081 91.4176 12.9537 91.4503 12.9905 91.4916C13.0647 91.586 13.1025 91.7039 13.0971 91.8239V93.1282C13.0971 93.1379 13.099 93.1474 13.1029 93.1562C13.1068 93.165 13.1124 93.1729 13.1195 93.1794C13.1266 93.1859 13.1349 93.1908 13.144 93.1939C13.1531 93.197 13.1628 93.1981 13.1724 93.1972H13.2977C13.3073 93.1981 13.317 93.197 13.3261 93.1939C13.3352 93.1908 13.3435 93.1859 13.3506 93.1794C13.3577 93.1729 13.3633 93.165 13.3672 93.1562C13.371 93.1474 13.373 93.1379 13.373 93.1282V91.8176C13.3822 91.6388 13.3215 91.4634 13.2037 91.3285C13.146 91.2675 13.0758 91.2196 12.9979 91.1882C12.92 91.1568 12.8362 91.1427 12.7523 91.1467Z" fill="white"/>
<path d="M15.4734 91.1907H15.3417C15.3321 91.1906 15.3226 91.1926 15.3138 91.1965C15.305 91.2003 15.2971 91.206 15.2906 91.213C15.2841 91.2201 15.2792 91.2285 15.2761 91.2376C15.273 91.2467 15.2719 91.2564 15.2727 91.2659V92.5577C15.2798 92.6809 15.2394 92.802 15.1599 92.8963C15.1204 92.9376 15.0726 92.9701 15.0196 92.9917C14.9667 93.0134 14.9098 93.0236 14.8527 93.0218C14.7984 93.025 14.744 93.0166 14.6932 92.9971C14.6424 92.9777 14.5963 92.9476 14.558 92.9089C14.4829 92.8125 14.4451 92.6923 14.4514 92.5703V91.2659C14.4523 91.2564 14.4512 91.2467 14.4481 91.2376C14.445 91.2285 14.4401 91.2201 14.4336 91.213C14.4271 91.206 14.4192 91.2003 14.4104 91.1965C14.4016 91.1926 14.3921 91.1906 14.3825 91.1907H14.2508C14.2412 91.1906 14.2317 91.1926 14.2229 91.1965C14.2141 91.2003 14.2062 91.206 14.1997 91.213C14.1932 91.2201 14.1882 91.2285 14.1852 91.2376C14.1821 91.2467 14.181 91.2564 14.1818 91.2659V92.6204C14.1745 92.7083 14.1858 92.7967 14.215 92.8799C14.2442 92.9631 14.2906 93.0392 14.3511 93.1033C14.4122 93.1607 14.4842 93.2052 14.5628 93.2343C14.6414 93.2634 14.7251 93.2764 14.8088 93.2726C14.9112 93.274 15.0124 93.2503 15.1035 93.2036C15.1698 93.1742 15.2279 93.129 15.2727 93.0719V93.1723C15.2718 93.1816 15.2729 93.191 15.276 93.1998C15.2791 93.2086 15.2842 93.2166 15.2908 93.2232C15.2974 93.2298 15.3054 93.2349 15.3142 93.238C15.323 93.2411 15.3324 93.2422 15.3417 93.2412H15.4734C15.4827 93.2422 15.4921 93.2411 15.5009 93.238C15.5097 93.2349 15.5177 93.2298 15.5243 93.2232C15.5309 93.2166 15.536 93.2086 15.5391 93.1998C15.5422 93.191 15.5433 93.1816 15.5423 93.1723V91.291C15.5432 91.2814 15.5421 91.2718 15.539 91.2627C15.5359 91.2536 15.531 91.2452 15.5245 91.2381C15.518 91.231 15.5101 91.2254 15.5013 91.2215C15.4925 91.2177 15.483 91.2157 15.4734 91.2158" fill="white"/>
<path d="M17.5362 91.3035C17.3999 91.1978 17.2323 91.1404 17.0597 91.1404C16.8872 91.1404 16.7196 91.1978 16.5832 91.3035C16.461 91.4145 16.383 91.566 16.3638 91.73C16.3306 92.0405 16.3306 92.3538 16.3638 92.6643C16.3684 92.7496 16.3903 92.833 16.4283 92.9095C16.4663 92.986 16.5195 93.054 16.5847 93.1091C16.6498 93.1643 16.7256 93.2056 16.8073 93.2305C16.889 93.2554 16.9749 93.2633 17.0597 93.2538C17.2316 93.2617 17.3999 93.2034 17.5299 93.0907C17.5938 93.0381 17.6467 92.9733 17.6854 92.9001C17.7242 92.8269 17.748 92.7468 17.7556 92.6643C17.765 92.5098 17.765 92.3548 17.7556 92.2003C17.7648 92.0436 17.7648 91.8866 17.7556 91.73C17.7419 91.5644 17.6629 91.411 17.5362 91.3035ZM17.5049 92.2003C17.5049 92.4009 17.5049 92.5389 17.5049 92.6142C17.4984 92.7234 17.4496 92.8258 17.3688 92.8995C17.288 92.9733 17.1816 93.0127 17.0723 93.0092C16.9641 93.0124 16.8587 92.9743 16.7776 92.9026C16.6965 92.8276 16.6471 92.7244 16.6397 92.6142C16.6397 92.5452 16.6397 92.4072 16.6397 92.2003C16.6397 91.9933 16.6397 91.8554 16.6397 91.7801C16.6428 91.7263 16.6567 91.6737 16.6804 91.6252C16.704 91.5768 16.7371 91.5335 16.7776 91.4979C16.8168 91.461 16.8632 91.4325 16.9139 91.4142C16.9646 91.3958 17.0185 91.3881 17.0723 91.3913C17.1806 91.3878 17.2861 91.4263 17.3667 91.4987C17.4473 91.5712 17.4968 91.672 17.5049 91.7801C17.5049 91.8554 17.5049 91.9996 17.5049 92.2003Z" fill="white"/>
<path d="M19.7933 91.1907H19.6491C19.6491 91.1907 19.5989 91.1907 19.5739 91.2535L19.135 92.8086L18.6961 91.2409C18.6911 91.2266 18.6817 91.2141 18.6694 91.2051C18.6571 91.1961 18.6424 91.1911 18.6272 91.1907H18.4767C18.4679 91.1899 18.4591 91.1908 18.4508 91.1936C18.4424 91.1963 18.4347 91.2008 18.4282 91.2067C18.4217 91.2126 18.4166 91.2199 18.413 91.2279C18.4095 91.236 18.4077 91.2447 18.4077 91.2535L18.9845 93.1911C18.9899 93.2065 19.0002 93.2198 19.0138 93.2288C19.0273 93.2378 19.0435 93.2422 19.0598 93.2413H19.2165C19.2319 93.2419 19.2471 93.2373 19.2597 93.2282C19.2722 93.2191 19.2813 93.206 19.2855 93.1911L19.8623 91.3099C19.8683 91.2994 19.8715 91.2875 19.8715 91.2754C19.8715 91.2633 19.8683 91.2514 19.8623 91.2409C19.8442 91.2336 19.8239 91.2336 19.8058 91.2409" fill="white"/>
<path d="M21.6739 91.3035C21.5386 91.1983 21.372 91.1411 21.2006 91.1411C21.0291 91.1411 20.8626 91.1983 20.7272 91.3035C20.6005 91.411 20.5216 91.5643 20.5078 91.7299C20.4954 91.8865 20.4954 92.0437 20.5078 92.2002C20.4956 92.3547 20.4956 92.5099 20.5078 92.6643C20.5216 92.8299 20.6005 92.9833 20.7272 93.0907C20.8573 93.2033 21.0256 93.2617 21.1974 93.2537C21.3737 93.2563 21.5442 93.1912 21.6739 93.0719C21.8007 92.9645 21.8796 92.8111 21.8934 92.6455C21.9032 92.491 21.9032 92.336 21.8934 92.1814C21.9033 92.0248 21.9033 91.8677 21.8934 91.7111C21.8796 91.5455 21.8007 91.3921 21.6739 91.2847M21.6426 92.1814C21.6513 92.3193 21.6513 92.4575 21.6426 92.5953C21.6351 92.7056 21.5858 92.8088 21.5047 92.8838C21.4235 92.9554 21.3182 92.9935 21.21 92.9904C21.102 92.9923 20.9971 92.9544 20.9153 92.8838C20.836 92.8081 20.7888 92.7048 20.7836 92.5953C20.7747 92.4575 20.7747 92.3193 20.7836 92.1814C20.7748 92.0415 20.7748 91.9012 20.7836 91.7613C20.7857 91.7079 20.7984 91.6554 20.821 91.6069C20.8436 91.5584 20.8757 91.515 20.9153 91.4791C20.955 91.4428 21.0014 91.4146 21.052 91.3963C21.1026 91.378 21.1563 91.3699 21.21 91.3725C21.2638 91.3692 21.3177 91.377 21.3683 91.3953C21.419 91.4137 21.4654 91.4422 21.5047 91.4791C21.5452 91.5147 21.5782 91.5579 21.6019 91.6064C21.6256 91.6548 21.6394 91.7075 21.6426 91.7613C21.6513 91.9012 21.6513 92.0415 21.6426 92.1814Z" fill="white"/>
<path d="M26.0626 91.3286C26.0077 91.269 25.9407 91.222 25.8661 91.1906C25.7914 91.1592 25.7109 91.1442 25.63 91.1468C25.5119 91.1439 25.3952 91.172 25.2914 91.2283C25.203 91.2803 25.1312 91.3564 25.0845 91.4478C25.0428 91.3606 24.9777 91.2868 24.8964 91.2346C24.8006 91.175 24.6895 91.1445 24.5767 91.1468C24.4769 91.1444 24.3781 91.1659 24.2883 91.2095C24.2194 91.2405 24.1591 91.2878 24.1127 91.3474V91.2471C24.1127 91.2271 24.1048 91.208 24.0907 91.1939C24.0766 91.1798 24.0574 91.1718 24.0375 91.1718H23.9121C23.9025 91.1718 23.893 91.1738 23.8842 91.1776C23.8754 91.1815 23.8675 91.1871 23.861 91.1942C23.8545 91.2013 23.8495 91.2097 23.8465 91.2188C23.8434 91.2279 23.8423 91.2375 23.8431 91.2471V93.1283C23.8421 93.1376 23.8432 93.1471 23.8464 93.1559C23.8495 93.1647 23.8545 93.1727 23.8611 93.1793C23.8678 93.1859 23.8758 93.191 23.8846 93.1941C23.8934 93.1972 23.9028 93.1983 23.9121 93.1973H24.0375C24.047 93.1982 24.0567 93.1971 24.0658 93.194C24.0749 93.1909 24.0833 93.186 24.0904 93.1795C24.0974 93.173 24.1031 93.1651 24.1069 93.1563C24.1108 93.1475 24.1128 93.138 24.1127 93.1283V91.824C24.1064 91.702 24.1442 91.5818 24.2193 91.4854C24.2575 91.4462 24.3034 91.4154 24.3541 91.3949C24.4049 91.3743 24.4593 91.3646 24.514 91.3662C24.5664 91.3652 24.6184 91.3759 24.6661 91.3977C24.7139 91.4194 24.7561 91.4515 24.7898 91.4917C24.8649 91.588 24.9028 91.7083 24.8964 91.8303V93.1283C24.8954 93.1376 24.8965 93.1471 24.8997 93.1559C24.9028 93.1647 24.9078 93.1727 24.9144 93.1793C24.921 93.1859 24.9291 93.191 24.9379 93.1941C24.9467 93.1972 24.9561 93.1983 24.9654 93.1973H25.0908C25.1004 93.1982 25.11 93.1971 25.1191 93.194C25.1282 93.1909 25.1366 93.186 25.1437 93.1795C25.1507 93.173 25.1564 93.1651 25.1602 93.1563C25.1641 93.1475 25.1661 93.138 25.166 93.1283V91.824C25.1597 91.702 25.1975 91.5818 25.2726 91.4854C25.3108 91.4462 25.3567 91.4154 25.4074 91.3949C25.4581 91.3743 25.5126 91.3646 25.5673 91.3662C25.6197 91.3652 25.6717 91.3759 25.7194 91.3977C25.7672 91.4194 25.8094 91.4515 25.8431 91.4917C25.9209 91.5866 25.9591 91.7079 25.9497 91.8303V93.1283C25.9497 93.138 25.9516 93.1475 25.9555 93.1563C25.9593 93.1651 25.965 93.173 25.9721 93.1795C25.9792 93.186 25.9875 93.1909 25.9966 93.194C26.0057 93.1971 26.0154 93.1982 26.0249 93.1973H26.1503C26.1596 93.1983 26.169 93.1972 26.1779 93.1941C26.1867 93.191 26.1947 93.1859 26.2013 93.1793C26.2079 93.1727 26.213 93.1647 26.2161 93.1559C26.2192 93.1471 26.2203 93.1376 26.2193 93.1283V91.8177C26.2302 91.637 26.1744 91.4585 26.0626 91.3161V91.3286Z" fill="white"/>
<path d="M28.1568 91.3036C28.0227 91.1937 27.8536 91.1359 27.6803 91.1406C27.5087 91.1345 27.3411 91.1926 27.2101 91.3036C27.0841 91.4125 27.0036 91.5646 26.9844 91.73C26.9512 92.0406 26.9512 92.3538 26.9844 92.6644C27.0048 92.8323 27.0878 92.9863 27.2168 93.0956C27.3459 93.2049 27.5114 93.2614 27.6803 93.2538C27.8522 93.2618 28.0205 93.2034 28.1505 93.0908C28.2144 93.0382 28.2673 92.9734 28.306 92.9002C28.3448 92.827 28.3686 92.7469 28.3762 92.6644C28.3856 92.5099 28.3856 92.3549 28.3762 92.2003C28.3854 92.0437 28.3854 91.8867 28.3762 91.73C28.3625 91.5644 28.2836 91.4111 28.1568 91.3036ZM28.1568 92.2003C28.1568 92.401 28.1568 92.539 28.1568 92.6142C28.1503 92.7235 28.1015 92.8258 28.0207 92.8996C27.9399 92.9734 27.8335 93.0127 27.7242 93.0093C27.616 93.0124 27.5107 92.9743 27.4295 92.9027C27.3484 92.8277 27.2991 92.7245 27.2916 92.6142C27.2916 92.5452 27.2916 92.4073 27.2916 92.2003C27.2916 91.9934 27.2916 91.8554 27.2916 91.7802C27.2948 91.7264 27.3086 91.6737 27.3323 91.6253C27.356 91.5768 27.389 91.5336 27.4295 91.498C27.4688 91.4611 27.5152 91.4326 27.5659 91.4142C27.6165 91.3959 27.6704 91.3881 27.7242 91.3914C27.8325 91.3879 27.938 91.4264 28.0187 91.4988C28.0993 91.5713 28.1488 91.6721 28.1568 91.7802C28.1568 91.8554 28.1568 91.9997 28.1568 92.2003Z" fill="white"/>
<path d="M30.4512 90.4005H30.3196C30.3103 90.3995 30.3009 90.4006 30.2921 90.4037C30.2833 90.4068 30.2753 90.4119 30.2686 90.4185C30.262 90.4251 30.257 90.4331 30.2538 90.4419C30.2507 90.4508 30.2496 90.4602 30.2506 90.4695V91.3348C30.2126 91.2851 30.1658 91.2426 30.1127 91.2094C30.0216 91.1633 29.92 91.1417 29.818 91.1467C29.6559 91.1376 29.4959 91.1865 29.3666 91.2847C29.2428 91.4064 29.1615 91.5647 29.1346 91.7362C29.1346 91.8052 29.1346 91.8867 29.1033 91.9807C29.0719 92.0748 29.1033 92.1563 29.1033 92.2253C29.1042 92.3837 29.1231 92.5415 29.1597 92.6956C29.1957 92.8566 29.2761 93.0043 29.3917 93.122C29.5095 93.2138 29.6563 93.2605 29.8055 93.2537C29.8924 93.2608 29.9797 93.2462 30.0596 93.2111C30.1395 93.1761 30.2095 93.1218 30.2632 93.0531V93.1534C30.2622 93.1627 30.2633 93.1721 30.2664 93.1809C30.2695 93.1897 30.2746 93.1977 30.2812 93.2044C30.2878 93.211 30.2958 93.216 30.3046 93.2191C30.3134 93.2223 30.3228 93.2234 30.3321 93.2224H30.4512C30.4605 93.2234 30.4699 93.2223 30.4788 93.2191C30.4876 93.216 30.4956 93.211 30.5022 93.2044C30.5088 93.1977 30.5139 93.1897 30.517 93.1809C30.5201 93.1721 30.5212 93.1627 30.5202 93.1534V90.4695C30.5212 90.4602 30.5201 90.4508 30.517 90.4419C30.5139 90.4331 30.5088 90.4251 30.5022 90.4185C30.4956 90.4119 30.4876 90.4068 30.4788 90.4037C30.4699 90.4006 30.4605 90.3995 30.4512 90.4005ZM29.8243 93.0092C29.7374 93.0142 29.6512 92.9899 29.5798 92.9402C29.5156 92.8789 29.4663 92.8039 29.4356 92.7207C29.3863 92.5518 29.3651 92.376 29.3729 92.2002C29.3686 92.013 29.3962 91.8264 29.4544 91.6484C29.4803 91.5703 29.5312 91.5028 29.5991 91.4564C29.6671 91.41 29.7484 91.3871 29.8306 91.3913C29.9049 91.3858 29.9786 91.4082 30.0375 91.454C30.0945 91.5136 30.1393 91.584 30.1691 91.6609C30.2249 91.835 30.2483 92.0178 30.2381 92.2002C30.2449 92.378 30.2237 92.5558 30.1754 92.727C30.1546 92.8099 30.1086 92.8844 30.0437 92.9402C29.9804 92.9872 29.9031 93.0115 29.8243 93.0092Z" fill="white"/>
<path d="M32.5393 91.3035C32.404 91.1983 32.2374 91.1411 32.066 91.1411C31.8945 91.1411 31.728 91.1983 31.5926 91.3035C31.4659 91.411 31.387 91.5643 31.3732 91.7299C31.3613 91.8865 31.3613 92.0437 31.3732 92.2002C31.3615 92.3547 31.3615 92.5098 31.3732 92.6643C31.387 92.8299 31.4659 92.9833 31.5926 93.0907C31.7227 93.2033 31.891 93.2617 32.0629 93.2537C32.2366 93.2614 32.4067 93.2032 32.5393 93.0907C32.6661 92.9833 32.745 92.8299 32.7588 92.6643C32.7723 92.5099 32.7723 92.3546 32.7588 92.2002C32.772 92.0438 32.772 91.8864 32.7588 91.7299C32.745 91.5643 32.6661 91.411 32.5393 91.3035ZM32.508 92.2002C32.5169 92.3381 32.5169 92.4763 32.508 92.6141C32.5056 92.669 32.4922 92.7229 32.4685 92.7724C32.4448 92.822 32.4113 92.8663 32.3701 92.9026C32.2889 92.9742 32.1836 93.0123 32.0754 93.0092C31.9674 93.0111 31.8625 92.9732 31.7807 92.9026C31.7014 92.8269 31.6542 92.7236 31.6491 92.6141C31.6403 92.4763 31.6403 92.3381 31.6491 92.2002C31.6404 92.0603 31.6404 91.92 31.6491 91.7801C31.6511 91.7267 31.6638 91.6742 31.6864 91.6257C31.709 91.5773 31.7411 91.5338 31.7807 91.4979C31.8204 91.4616 31.8668 91.4334 31.9174 91.4151C31.968 91.3969 32.0217 91.3888 32.0754 91.3913C32.1292 91.388 32.1831 91.3958 32.2338 91.4141C32.2844 91.4325 32.3308 91.461 32.3701 91.4979C32.4117 91.5325 32.4455 91.5755 32.4693 91.6242C32.4931 91.6728 32.5063 91.726 32.508 91.7801C32.5168 91.92 32.5168 92.0603 32.508 92.2002Z" fill="white"/>
<path d="M35.9625 90.4005H35.8309C35.8216 90.3995 35.8122 90.4006 35.8033 90.4037C35.7945 90.4068 35.7865 90.4119 35.7799 90.4185C35.7733 90.4251 35.7682 90.4331 35.7651 90.4419C35.762 90.4508 35.7609 90.4602 35.7619 90.4695V91.3348C35.7254 91.2836 35.6784 91.2409 35.624 91.2094C35.5354 91.1624 35.4356 91.1407 35.3356 91.1467C35.1734 91.1365 35.013 91.1855 34.8842 91.2847C34.7581 91.4047 34.6764 91.5638 34.6522 91.7362C34.6375 91.8171 34.627 91.8987 34.6208 91.9807C34.6153 92.0622 34.6153 92.1439 34.6208 92.2253C34.6217 92.3837 34.6407 92.5415 34.6773 92.6956C34.7079 92.8586 34.7891 93.0078 34.9092 93.122C35.0271 93.2138 35.1738 93.2605 35.323 93.2537C35.409 93.2603 35.4953 93.2454 35.574 93.2104C35.6528 93.1754 35.7217 93.1213 35.7744 93.0531V93.1534C35.7734 93.1627 35.7745 93.1721 35.7777 93.1809C35.7808 93.1897 35.7858 93.1977 35.7925 93.2044C35.7991 93.211 35.8071 93.216 35.8159 93.2191C35.8247 93.2223 35.8341 93.2234 35.8434 93.2224H35.9751C35.9844 93.2234 35.9938 93.2223 36.0026 93.2191C36.0114 93.216 36.0194 93.211 36.026 93.2044C36.0326 93.1977 36.0377 93.1897 36.0408 93.1809C36.0439 93.1721 36.045 93.1627 36.044 93.1534V90.4695C36.045 90.4602 36.0439 90.4508 36.0408 90.4419C36.0377 90.4331 36.0326 90.4251 36.026 90.4185C36.0194 90.4119 36.0114 90.4068 36.0026 90.4037C35.9938 90.4006 35.9844 90.3995 35.9751 90.4005M35.7682 92.2002C35.7739 92.3784 35.7506 92.5563 35.6992 92.727C35.6766 92.8092 35.6309 92.8832 35.5675 92.9402C35.5052 92.9891 35.4272 93.0136 35.3481 93.0092C35.2614 93.012 35.176 92.9879 35.1036 92.9402C35.038 92.8814 34.9902 92.8053 34.9657 92.7207C34.9137 92.5523 34.8904 92.3764 34.8967 92.2002C34.891 92.0124 34.9207 91.8252 34.9845 91.6484C35.0092 91.5708 35.0589 91.5035 35.1258 91.457C35.1927 91.4105 35.273 91.3874 35.3544 91.3913C35.4287 91.3858 35.5024 91.4082 35.5613 91.454C35.6212 91.5113 35.6664 91.5823 35.6929 91.6609C35.7513 91.8345 35.7768 92.0173 35.7682 92.2002Z" fill="white"/>
<path d="M37.1346 91.1907H37.0029C36.9933 91.1906 36.9838 91.1926 36.975 91.1965C36.9662 91.2003 36.9583 91.206 36.9518 91.213C36.9453 91.2201 36.9403 91.2285 36.9373 91.2376C36.9342 91.2467 36.9331 91.2564 36.9339 91.2659V93.1472C36.933 93.1565 36.9341 93.1659 36.9372 93.1747C36.9403 93.1835 36.9454 93.1915 36.952 93.1981C36.9586 93.2048 36.9666 93.2098 36.9754 93.2129C36.9842 93.216 36.9936 93.2171 37.0029 93.2162H37.1346C37.1439 93.2171 37.1533 93.216 37.1621 93.2129C37.1709 93.2098 37.1789 93.2048 37.1855 93.1981C37.1921 93.1915 37.1972 93.1835 37.2003 93.1747C37.2034 93.1659 37.2045 93.1565 37.2035 93.1472V91.2659C37.2044 91.2564 37.2033 91.2467 37.2002 91.2376C37.1971 91.2285 37.1922 91.2201 37.1857 91.213C37.1792 91.206 37.1713 91.2003 37.1625 91.1965C37.1537 91.1926 37.1442 91.1906 37.1346 91.1907Z" fill="white"/>
<path d="M37.0719 90.3817C37.0418 90.3799 37.0116 90.3845 36.9834 90.3952C36.9552 90.4059 36.9296 90.4225 36.9082 90.4438C36.8869 90.4651 36.8703 90.4908 36.8596 90.519C36.8489 90.5472 36.8444 90.5774 36.8462 90.6075C36.8441 90.6376 36.8487 90.6678 36.8595 90.696C36.8703 90.7241 36.8872 90.7496 36.9089 90.7705C36.93 90.7924 36.9553 90.8098 36.9833 90.8217C37.0113 90.8335 37.0415 90.8396 37.0719 90.8395C37.1033 90.8401 37.1345 90.8343 37.1636 90.8224C37.1927 90.8105 37.2191 90.7929 37.2412 90.7705C37.2619 90.7489 37.2781 90.7233 37.2889 90.6953C37.2997 90.6673 37.3048 90.6375 37.3039 90.6075C37.3032 90.5474 37.2809 90.4895 37.2412 90.4444C37.2188 90.4229 37.1922 90.4062 37.1631 90.3954C37.1339 90.3846 37.1029 90.38 37.0719 90.3817Z" fill="white"/>
<path d="M39.9751 90.3816H39.8936C39.8104 90.3729 39.7263 90.3836 39.648 90.413C39.5696 90.4424 39.4992 90.4896 39.4422 90.5509C39.3474 90.7026 39.3035 90.8805 39.3168 91.0589V91.1906H39.1162C39.1066 91.1905 39.0971 91.1925 39.0883 91.1963C39.0795 91.2002 39.0716 91.2058 39.0651 91.2129C39.0586 91.22 39.0536 91.2284 39.0506 91.2375C39.0475 91.2466 39.0464 91.2562 39.0472 91.2658V91.3599C39.0462 91.3692 39.0473 91.3786 39.0505 91.3874C39.0536 91.3962 39.0586 91.4042 39.0652 91.4108C39.0719 91.4174 39.0799 91.4225 39.0887 91.4256C39.0975 91.4287 39.1069 91.4298 39.1162 91.4288H39.3168V93.1721C39.3158 93.1814 39.3169 93.1908 39.3201 93.1997C39.3232 93.2085 39.3282 93.2165 39.3348 93.2231C39.3414 93.2297 39.3495 93.2348 39.3583 93.2379C39.3671 93.241 39.3765 93.2421 39.3858 93.2411H39.5174C39.5267 93.2421 39.5361 93.241 39.545 93.2379C39.5538 93.2348 39.5618 93.2297 39.5684 93.2231C39.575 93.2165 39.5801 93.2085 39.5832 93.1997C39.5863 93.1908 39.5874 93.1814 39.5864 93.1721V91.4288H39.9626C39.9719 91.4298 39.9813 91.4287 39.9901 91.4256C39.9989 91.4225 40.0069 91.4174 40.0136 91.4108C40.0202 91.4042 40.0252 91.3962 40.0283 91.3874C40.0314 91.3786 40.0325 91.3692 40.0316 91.3599V91.2658C40.0324 91.2562 40.0313 91.2466 40.0282 91.2375C40.0252 91.2284 40.0202 91.22 40.0137 91.2129C40.0072 91.2058 39.9993 91.2002 39.9905 91.1963C39.9817 91.1925 39.9722 91.1905 39.9626 91.1906H39.5864V91.0839C39.5772 90.9668 39.6011 90.8495 39.6554 90.7453C39.6855 90.711 39.7235 90.6846 39.7661 90.6682C39.8086 90.6518 39.8546 90.646 39.8999 90.6513H39.9751C39.9844 90.6522 39.9938 90.6511 40.0026 90.648C40.0115 90.6449 40.0195 90.6399 40.0261 90.6332C40.0327 90.6266 40.0377 90.6186 40.0409 90.6098C40.044 90.601 40.0451 90.5916 40.0441 90.5823V90.4757C40.045 90.4661 40.0438 90.4565 40.0408 90.4474C40.0377 90.4382 40.0327 90.4299 40.0263 90.4228C40.0198 90.4157 40.0119 90.4101 40.003 90.4062C39.9942 90.4024 39.9847 90.4004 39.9751 90.4004" fill="white"/>
<path d="M41.3857 91.1404C41.2226 91.1381 41.0627 91.1863 40.928 91.2784C40.8678 91.3214 40.8171 91.3766 40.7794 91.4403C40.7416 91.504 40.7175 91.5749 40.7086 91.6484C40.7028 91.6668 40.7028 91.6865 40.7086 91.7048C40.727 91.7102 40.7466 91.7102 40.765 91.7048H40.9092C40.9469 91.7048 40.9782 91.7048 40.9782 91.6484C40.9931 91.5663 41.0377 91.4926 41.1036 91.4414C41.1837 91.3896 41.2778 91.3633 41.3732 91.3662C41.4291 91.3619 41.4852 91.3705 41.5374 91.3911C41.5895 91.4117 41.6363 91.444 41.6741 91.4853C41.7432 91.5797 41.7786 91.6946 41.7744 91.8114V91.9807H41.3983C41.1982 91.9704 41.0008 92.0303 40.8403 92.1501C40.769 92.2103 40.7131 92.2867 40.6772 92.3728C40.6412 92.459 40.6262 92.5524 40.6334 92.6455C40.6251 92.7289 40.6373 92.813 40.669 92.8906C40.7007 92.9682 40.7509 93.0369 40.8152 93.0907C40.9387 93.186 41.0919 93.2349 41.2478 93.2286C41.3576 93.231 41.4667 93.2096 41.5676 93.1659C41.645 93.1342 41.7154 93.0873 41.7744 93.028V93.1283C41.7735 93.1376 41.7746 93.147 41.7777 93.1558C41.7808 93.1647 41.7859 93.1727 41.7925 93.1793C41.7991 93.1859 41.8071 93.1909 41.8159 93.1941C41.8247 93.1972 41.8341 93.1983 41.8434 93.1973H41.9751C41.9844 93.1983 41.9938 93.1972 42.0026 93.1941C42.0114 93.1909 42.0194 93.1859 42.026 93.1793C42.0326 93.1727 42.0377 93.1647 42.0408 93.1558C42.0439 93.147 42.045 93.1376 42.044 93.1283V91.8177C42.0535 91.6339 41.9904 91.4538 41.8685 91.316C41.8047 91.2504 41.7272 91.1996 41.6417 91.1671C41.5561 91.1346 41.4645 91.1212 41.3732 91.1279M41.7744 92.2253V92.5827C41.7773 92.6409 41.7656 92.6989 41.7404 92.7515C41.7152 92.804 41.6773 92.8495 41.6302 92.8837C41.5294 92.9601 41.4056 92.9999 41.2791 92.9966C41.1799 92.9994 41.0827 92.9685 41.0033 92.9088C40.9675 92.8755 40.9399 92.8344 40.9225 92.7888C40.9052 92.7431 40.8985 92.6941 40.903 92.6455C40.899 92.5859 40.9095 92.5263 40.9335 92.4718C40.9575 92.4172 40.9944 92.3692 41.0409 92.3319C41.1488 92.256 41.2791 92.2184 41.4108 92.2253H41.7744Z" fill="white"/>
<path d="M43.7931 91.1907C43.727 91.1582 43.6536 91.143 43.58 91.1468C43.4772 91.1462 43.3766 91.1768 43.2916 91.2346C43.2305 91.2803 43.1793 91.3379 43.1411 91.4039V91.2283C43.1411 91.2187 43.1392 91.2092 43.1353 91.2004C43.1315 91.1916 43.1258 91.1837 43.1188 91.1772C43.1117 91.1707 43.1033 91.1658 43.0942 91.1627C43.0851 91.1596 43.0754 91.1585 43.0659 91.1594H42.9405C42.9309 91.1585 42.9213 91.1596 42.9121 91.1627C42.903 91.1658 42.8947 91.1707 42.8876 91.1772C42.8805 91.1837 42.8749 91.1916 42.871 91.2004C42.8672 91.2092 42.8652 91.2187 42.8652 91.2283V93.1096C42.8652 93.1192 42.8672 93.1287 42.871 93.1375C42.8749 93.1463 42.8805 93.1542 42.8876 93.1607C42.8947 93.1672 42.903 93.1722 42.9121 93.1752C42.9213 93.1783 42.9309 93.1794 42.9405 93.1786H43.0659C43.0754 93.1794 43.0851 93.1783 43.0942 93.1752C43.1033 93.1722 43.1117 93.1672 43.1188 93.1607C43.1258 93.1542 43.1315 93.1463 43.1353 93.1375C43.1392 93.1287 43.1411 93.1192 43.1411 93.1096V91.9244C43.1375 91.7901 43.177 91.6582 43.254 91.5482C43.2877 91.5031 43.3311 91.4662 43.381 91.4401C43.431 91.4141 43.4861 91.3996 43.5424 91.3977H43.6176C43.6569 91.3894 43.6974 91.3894 43.7367 91.3977H43.7931C43.7931 91.3977 43.7931 91.3976 43.7931 91.3538L43.8308 91.2158C43.8337 91.208 43.8352 91.1996 43.8349 91.1913C43.8346 91.1829 43.8326 91.1747 43.8291 91.1671C43.8256 91.1595 43.8206 91.1527 43.8145 91.1471C43.8083 91.1414 43.801 91.1371 43.7931 91.1343" fill="white"/>
<path d="M45.5926 91.3161C45.4587 91.196 45.2832 91.133 45.1036 91.1405C44.931 91.1349 44.7628 91.1955 44.6333 91.3098C44.5078 91.4208 44.4293 91.5756 44.4139 91.7425C44.4043 91.8949 44.4043 92.0478 44.4139 92.2003C44.4139 92.2881 44.4139 92.3696 44.4139 92.4511C44.4069 92.5262 44.4069 92.6018 44.4139 92.6768C44.4351 92.8384 44.5129 92.9873 44.6333 93.097C44.7655 93.2052 44.9329 93.261 45.1036 93.2538C45.2583 93.2583 45.4102 93.2121 45.5362 93.1221C45.6563 93.0373 45.7429 92.913 45.7807 92.7709C45.7836 92.764 45.7851 92.7565 45.7851 92.749C45.7851 92.7414 45.7836 92.734 45.7807 92.727C45.7807 92.727 45.7807 92.727 45.7305 92.6894H45.6114C45.6032 92.6865 45.5945 92.6854 45.5858 92.6861C45.5771 92.6868 45.5687 92.6892 45.561 92.6934C45.5533 92.6975 45.5466 92.7032 45.5412 92.7101C45.5359 92.7169 45.532 92.7248 45.5299 92.7333C45.5042 92.8205 45.4487 92.8959 45.3732 92.9465C45.2955 92.9994 45.2038 93.0278 45.1098 93.028C45.0548 93.0323 44.9994 93.0253 44.9472 93.0075C44.8949 92.9898 44.8468 92.9616 44.8057 92.9246C44.7647 92.8877 44.7316 92.8428 44.7084 92.7926C44.6852 92.7425 44.6725 92.6882 44.671 92.633C44.6657 92.5306 44.6657 92.428 44.671 92.3257H45.7493C45.7586 92.3267 45.768 92.3256 45.7768 92.3224C45.7857 92.3193 45.7937 92.3143 45.8003 92.3077C45.8069 92.301 45.812 92.293 45.8151 92.2842C45.8182 92.2754 45.8193 92.266 45.8183 92.2567C45.8269 92.1 45.8269 91.943 45.8183 91.7864C45.8156 91.7005 45.7953 91.6162 45.7586 91.5385C45.7219 91.4608 45.6697 91.3915 45.6051 91.3349M45.5613 92.0874H44.6835C44.6785 91.9913 44.6785 91.895 44.6835 91.7989C44.692 91.6921 44.7388 91.5919 44.8152 91.5167C44.8977 91.4473 45.002 91.4092 45.1098 91.4092C45.2177 91.4092 45.322 91.4473 45.4045 91.5167C45.4852 91.5894 45.5347 91.6906 45.5424 91.7989C45.5424 91.8805 45.5424 91.9808 45.5424 92.0874" fill="white"/>
<path d="M47.8873 90.3817C47.8563 90.38 47.8253 90.3846 47.7962 90.3954C47.767 90.4062 47.7405 90.4229 47.7181 90.4444C47.6783 90.4895 47.6561 90.5474 47.6554 90.6075C47.6545 90.6375 47.6596 90.6673 47.6703 90.6953C47.6811 90.7233 47.6973 90.7489 47.7181 90.7705C47.7401 90.7929 47.7665 90.8105 47.7956 90.8224C47.8247 90.8343 47.8559 90.8401 47.8873 90.8395C47.9178 90.8396 47.9479 90.8335 47.9759 90.8217C48.0039 90.8098 48.0292 90.7924 48.0504 90.7705C48.0721 90.7496 48.0889 90.7241 48.0997 90.696C48.1106 90.6678 48.1151 90.6376 48.1131 90.6075C48.1149 90.5774 48.1103 90.5472 48.0996 90.519C48.0889 90.4908 48.0723 90.4651 48.051 90.4438C48.0297 90.4225 48.0041 90.4059 47.9758 90.3952C47.9476 90.3845 47.9175 90.3799 47.8873 90.3817Z" fill="white"/>
<path d="M47.9437 91.1907H47.812C47.8024 91.1906 47.7929 91.1926 47.7841 91.1965C47.7753 91.2003 47.7674 91.206 47.7609 91.213C47.7544 91.2201 47.7494 91.2285 47.7464 91.2376C47.7433 91.2467 47.7422 91.2564 47.743 91.2659V93.1472C47.742 93.1565 47.7431 93.1659 47.7463 93.1747C47.7494 93.1835 47.7544 93.1915 47.761 93.1981C47.7677 93.2048 47.7757 93.2098 47.7845 93.2129C47.7933 93.216 47.8027 93.2171 47.812 93.2162H47.9437C47.953 93.2171 47.9624 93.216 47.9712 93.2129C47.98 93.2098 47.988 93.2048 47.9946 93.1981C48.0012 93.1915 48.0063 93.1835 48.0094 93.1747C48.0125 93.1659 48.0136 93.1565 48.0126 93.1472V91.2659C48.0135 91.2564 48.0124 91.2467 48.0093 91.2376C48.0062 91.2285 48.0013 91.2201 47.9948 91.213C47.9883 91.206 47.9804 91.2003 47.9716 91.1965C47.9628 91.1926 47.9533 91.1906 47.9437 91.1907Z" fill="white"/>
<path d="M51.1413 91.3286C51.0876 91.2692 51.0217 91.2221 50.9481 91.1907C50.8745 91.1593 50.7949 91.1443 50.7149 91.1467C50.5969 91.1439 50.4802 91.172 50.3764 91.2283C50.2883 91.2827 50.215 91.3581 50.1632 91.4477C50.1241 91.3608 50.061 91.2869 49.9814 91.2345C49.8846 91.1771 49.7742 91.1468 49.6616 91.1467C49.5619 91.1444 49.463 91.1659 49.3732 91.2095C49.3025 91.2402 49.2401 91.2876 49.1914 91.3474V91.2471C49.1923 91.2375 49.1911 91.2279 49.1881 91.2188C49.185 91.2096 49.1801 91.2013 49.1736 91.1942C49.1671 91.1871 49.1592 91.1815 49.1504 91.1776C49.1416 91.1738 49.1321 91.1718 49.1224 91.1718H48.997C48.9874 91.1718 48.9779 91.1738 48.9691 91.1776C48.9603 91.1815 48.9524 91.1871 48.9459 91.1942C48.9394 91.2013 48.9345 91.2096 48.9314 91.2188C48.9283 91.2279 48.9272 91.2375 48.9281 91.2471V93.1283C48.9271 93.1376 48.9282 93.147 48.9313 93.1559C48.9344 93.1647 48.9395 93.1727 48.9461 93.1793C48.9527 93.1859 48.9607 93.191 48.9695 93.1941C48.9783 93.1972 48.9877 93.1983 48.997 93.1973H49.1224C49.1317 93.1983 49.1411 93.1972 49.15 93.1941C49.1588 93.191 49.1668 93.1859 49.1734 93.1793C49.18 93.1727 49.185 93.1647 49.1882 93.1559C49.1913 93.147 49.1924 93.1376 49.1914 93.1283V91.824C49.1844 91.7008 49.2248 91.5797 49.3043 91.4854C49.3425 91.4462 49.3884 91.4154 49.4391 91.3948C49.4898 91.3743 49.5442 91.3646 49.5989 91.3662C49.6514 91.3652 49.7033 91.3759 49.7511 91.3976C49.7988 91.4193 49.8411 91.4515 49.8748 91.4916C49.9499 91.588 49.9877 91.7082 49.9814 91.8303V93.1283C49.9804 93.1376 49.9815 93.147 49.9846 93.1559C49.9877 93.1647 49.9928 93.1727 49.9994 93.1793C50.006 93.1859 50.014 93.191 50.0228 93.1941C50.0317 93.1972 50.041 93.1983 50.0503 93.1973H50.1757C50.185 93.1983 50.1944 93.1972 50.2032 93.1941C50.2121 93.191 50.2201 93.1859 50.2267 93.1793C50.2333 93.1727 50.2384 93.1647 50.2415 93.1559C50.2446 93.147 50.2457 93.1376 50.2447 93.1283V91.824C50.2377 91.7008 50.2781 91.5797 50.3576 91.4854C50.3957 91.4462 50.4417 91.4154 50.4924 91.3948C50.5431 91.3743 50.5975 91.3646 50.6522 91.3662C50.7047 91.3652 50.7566 91.3759 50.8044 91.3976C50.8521 91.4193 50.8944 91.4515 50.9281 91.4916C51.0059 91.5866 51.0441 91.7079 51.0347 91.8303V93.1283C51.0337 93.1376 51.0348 93.147 51.0379 93.1559C51.041 93.1647 51.0461 93.1727 51.0527 93.1793C51.0593 93.1859 51.0673 93.191 51.0761 93.1941C51.0849 93.1972 51.0943 93.1983 51.1036 93.1973H51.2353C51.2446 93.1983 51.254 93.1972 51.2628 93.1941C51.2716 93.191 51.2796 93.1859 51.2862 93.1793C51.2929 93.1727 51.2979 93.1647 51.301 93.1559C51.3041 93.147 51.3053 93.1376 51.3043 93.1283V91.8177C51.3124 91.6373 51.2569 91.4598 51.1475 91.3161L51.1413 91.3286Z" fill="white"/>
<path d="M53.3039 91.2784C53.187 91.1844 53.0401 91.1354 52.8901 91.1405C52.8034 91.135 52.7166 91.1504 52.637 91.1853C52.5573 91.2202 52.4872 91.2736 52.4324 91.3411V91.2471C52.4316 91.2352 52.4277 91.2238 52.4211 91.2139C52.4145 91.204 52.4054 91.196 52.3948 91.1906H52.2632C52.2536 91.1906 52.244 91.1926 52.2352 91.1964C52.2264 91.2003 52.2185 91.2059 52.212 91.213C52.2056 91.2201 52.2006 91.2285 52.1975 91.2376C52.1945 91.2467 52.1933 91.2563 52.1942 91.2659V93.9435C52.1932 93.9528 52.1943 93.9622 52.1974 93.9711C52.2005 93.9799 52.2056 93.9879 52.2122 93.9945C52.2188 94.0011 52.2268 94.0062 52.2357 94.0093C52.2445 94.0124 52.2539 94.0135 52.2632 94.0125H52.3948C52.4041 94.0135 52.4135 94.0124 52.4223 94.0093C52.4312 94.0062 52.4392 94.0011 52.4458 93.9945C52.4524 93.9879 52.4574 93.9799 52.4606 93.9711C52.4637 93.9622 52.4648 93.9528 52.4638 93.9435V93.0719C52.5001 93.1232 52.5472 93.166 52.6017 93.1973C52.6922 93.2458 52.7938 93.2696 52.8964 93.2663C53.0578 93.2775 53.2173 93.2258 53.3415 93.1221C53.4684 93.0052 53.5504 92.8477 53.5735 92.6768C53.6062 92.5138 53.621 92.3477 53.6174 92.1814C53.618 92.0229 53.599 91.865 53.561 91.7111C53.5297 91.5516 53.451 91.4052 53.3353 91.291M53.3353 92.2128C53.3427 92.3982 53.315 92.5833 53.2538 92.7584C53.2263 92.836 53.1753 92.9031 53.1079 92.9503C53.0404 92.9976 52.9599 93.0225 52.8776 93.0217C52.8025 93.0248 52.7289 93.0003 52.6707 92.9528C52.6072 92.8984 52.5614 92.8264 52.539 92.7458C52.4821 92.5741 52.4566 92.3935 52.4638 92.2128C52.4601 92.0327 52.4833 91.853 52.5328 91.6798C52.5568 91.5982 52.6023 91.5246 52.6644 91.4666C52.7277 91.4196 52.805 91.3953 52.8839 91.3976C52.9687 91.3935 53.0526 91.4177 53.1221 91.4666C53.1916 91.5257 53.2418 91.6044 53.2663 91.6923C53.3183 91.8607 53.3416 92.0367 53.3353 92.2128Z" fill="white"/>
<path d="M55.2979 91.1907C55.2295 91.1581 55.1541 91.1431 55.0784 91.1468C54.9758 91.147 54.8754 91.1775 54.7901 91.2346C54.7305 91.2819 54.6796 91.3392 54.6396 91.4039V91.2283C54.6406 91.219 54.6395 91.2096 54.6363 91.2008C54.6332 91.192 54.6282 91.184 54.6216 91.1774C54.615 91.1708 54.6069 91.1657 54.5981 91.1626C54.5893 91.1595 54.5799 91.1584 54.5706 91.1594H54.439C54.4297 91.1584 54.4203 91.1595 54.4114 91.1626C54.4026 91.1657 54.3946 91.1708 54.388 91.1774C54.3814 91.184 54.3763 91.192 54.3732 91.2008C54.3701 91.2096 54.369 91.219 54.37 91.2283V93.1096C54.369 93.1189 54.3701 93.1283 54.3732 93.1371C54.3763 93.1459 54.3814 93.1539 54.388 93.1606C54.3946 93.1672 54.4026 93.1722 54.4114 93.1753C54.4203 93.1785 54.4297 93.1796 54.439 93.1786H54.5706C54.5799 93.1796 54.5893 93.1785 54.5981 93.1753C54.6069 93.1722 54.615 93.1672 54.6216 93.1606C54.6282 93.1539 54.6332 93.1459 54.6363 93.1371C54.6395 93.1283 54.6406 93.1189 54.6396 93.1096V91.9244C54.6359 91.7901 54.6755 91.6582 54.7524 91.5482C54.7875 91.5029 54.832 91.466 54.883 91.44C54.9339 91.414 54.9899 91.3995 55.0471 91.3977H55.0847C55.1239 91.3888 55.1646 91.3888 55.2038 91.3977H55.2603C55.2693 91.3935 55.2774 91.3874 55.2839 91.3798C55.2904 91.3723 55.2952 91.3634 55.2979 91.3538L55.3355 91.2158C55.3388 91.2 55.337 91.1835 55.3302 91.1688C55.3234 91.1541 55.3121 91.142 55.2979 91.1343" fill="white"/>
<path d="M57.0909 91.316C56.956 91.2044 56.7864 91.1433 56.6113 91.1433C56.4362 91.1433 56.2665 91.2044 56.1316 91.316C56.0107 91.4306 55.9332 91.5835 55.9122 91.7487C55.9036 91.9012 55.9036 92.054 55.9122 92.2065V92.4573C55.9122 92.5451 55.9122 92.6141 55.9122 92.6831C55.9292 92.8474 56.0103 92.9984 56.1379 93.1032C56.2673 93.2121 56.433 93.2681 56.6019 93.26C56.7566 93.2646 56.9085 93.2183 57.0345 93.1283C57.1546 93.0436 57.2412 92.9193 57.279 92.7772C57.2819 92.7702 57.2834 92.7627 57.2834 92.7552C57.2834 92.7477 57.2819 92.7402 57.279 92.7333C57.279 92.7333 57.279 92.7333 57.2288 92.6956H57.1097C57.1015 92.6928 57.0928 92.6916 57.0841 92.6923C57.0754 92.693 57.0669 92.6955 57.0593 92.6996C57.0516 92.7037 57.0449 92.7094 57.0395 92.7163C57.0342 92.7232 57.0303 92.7311 57.0282 92.7395C57.0025 92.8267 56.947 92.9022 56.8715 92.9527C56.7938 93.0056 56.7021 93.034 56.6081 93.0343C56.4979 93.0384 56.3902 93.0003 56.3072 92.9277C56.2261 92.8526 56.1767 92.7494 56.1693 92.6392C56.1693 92.589 56.1693 92.4824 56.1693 92.3319H57.2476C57.2572 92.3328 57.2669 92.3317 57.276 92.3286C57.2851 92.3255 57.2934 92.3206 57.3005 92.3141C57.3076 92.3076 57.3132 92.2997 57.3171 92.2909C57.3209 92.2821 57.3229 92.2726 57.3229 92.2629C57.3229 92.0309 57.3229 91.8804 57.3229 91.7926C57.309 91.6199 57.2307 91.4587 57.1034 91.3411M57.0595 92.0936H56.1567C56.1567 91.9557 56.1567 91.8553 56.1567 91.8052C56.1645 91.6968 56.2139 91.5957 56.2947 91.523C56.3758 91.4513 56.4811 91.4132 56.5893 91.4164C56.643 91.4138 56.6967 91.4219 56.7473 91.4402C56.7979 91.4585 56.8443 91.4866 56.884 91.523C56.9604 91.5981 57.0072 91.6983 57.0157 91.8052C57.0225 91.9012 57.0225 91.9976 57.0157 92.0936" fill="white"/>
<path d="M59.0343 92.194C58.9528 92.1564 58.8462 92.1125 58.7208 92.0686C58.6369 92.0414 58.5551 92.0079 58.4763 91.9683C58.4228 91.9436 58.3757 91.9072 58.3384 91.8617C58.3025 91.8176 58.2846 91.7616 58.2882 91.7049C58.2862 91.6621 58.2943 91.6194 58.3117 91.5802C58.3291 91.541 58.3554 91.5064 58.3885 91.4792C58.4693 91.4177 58.5692 91.3866 58.6706 91.3914C58.7769 91.387 58.8812 91.4203 58.9653 91.4854C58.9989 91.5127 59.0258 91.5471 59.0443 91.5862C59.0627 91.6252 59.0722 91.668 59.0719 91.7112C59.071 91.7207 59.0721 91.7304 59.0752 91.7395C59.0783 91.7486 59.0833 91.757 59.0897 91.7641C59.0962 91.7711 59.1041 91.7768 59.1129 91.7806C59.1217 91.7845 59.1313 91.7865 59.1409 91.7864H59.2913C59.3009 91.7865 59.3104 91.7845 59.3192 91.7806C59.3281 91.7768 59.336 91.7711 59.3425 91.7641C59.3489 91.757 59.3539 91.7486 59.357 91.7395C59.36 91.7304 59.3612 91.7207 59.3603 91.7112C59.3621 91.6349 59.3466 91.5592 59.3152 91.4898C59.2837 91.4203 59.237 91.3588 59.1785 91.3098C59.0286 91.206 58.8447 91.1634 58.6644 91.1907C58.4959 91.1847 58.3303 91.2355 58.1942 91.3349C58.1354 91.3864 58.0886 91.4501 58.0572 91.5216C58.0258 91.5932 58.0105 91.6707 58.0123 91.7488C58.0096 91.8539 58.0403 91.9571 58.1001 92.0435C58.1561 92.1183 58.2292 92.1785 58.3133 92.2191C58.4109 92.2672 58.5114 92.3091 58.6142 92.3445C58.7017 92.3732 58.7875 92.4067 58.8713 92.4449C58.9256 92.4709 58.9746 92.5071 59.0155 92.5515C59.0507 92.5983 59.0685 92.656 59.0656 92.7145C59.0676 92.7583 59.0596 92.8019 59.0422 92.8421C59.0249 92.8823 58.9986 92.918 58.9653 92.9465C58.8837 93.0117 58.7812 93.0451 58.6769 93.0406C58.5686 93.0459 58.462 93.0125 58.376 92.9465C58.3434 92.9212 58.3169 92.8889 58.2985 92.852C58.28 92.8151 58.2701 92.7746 58.2694 92.7333C58.2694 92.7134 58.2615 92.6942 58.2473 92.6801C58.2332 92.666 58.2141 92.6581 58.1942 92.6581H58.0688C58.0591 92.658 58.0496 92.66 58.0408 92.6638C58.032 92.6677 58.0241 92.6734 58.0176 92.6804C58.0111 92.6875 58.0062 92.6959 58.0031 92.705C58.0001 92.7141 57.9989 92.7238 57.9998 92.7333C57.9983 92.8084 58.0146 92.8827 58.0473 92.9503C58.08 93.0178 58.1281 93.0767 58.1879 93.1221C58.329 93.2265 58.5015 93.2796 58.6769 93.2726C58.8506 93.2818 59.0219 93.2284 59.1597 93.1221C59.2189 93.0697 59.2659 93.0049 59.2974 92.9323C59.3288 92.8597 59.3438 92.7811 59.3415 92.702C59.3452 92.5939 59.312 92.4877 59.2474 92.401C59.1876 92.3275 59.1128 92.2676 59.028 92.2254" fill="white"/>
<path d="M60.7083 91.1404C60.5451 91.1372 60.3849 91.1855 60.2507 91.2784C60.1904 91.3214 60.1398 91.3766 60.102 91.4403C60.0642 91.504 60.0401 91.5749 60.0312 91.6484C60.0268 91.656 60.0245 91.6647 60.0245 91.6735C60.0245 91.6823 60.0268 91.6909 60.0312 91.6986C60.039 91.7024 60.0476 91.7044 60.0563 91.7044C60.065 91.7044 60.0736 91.7024 60.0814 91.6986H60.2256C60.2343 91.7004 60.2433 91.7003 60.252 91.6984C60.2606 91.6964 60.2688 91.6927 60.2759 91.6873C60.2831 91.682 60.2889 91.6752 60.2932 91.6674C60.2975 91.6596 60.3001 91.651 60.3008 91.6421C60.307 91.601 60.3212 91.5616 60.3427 91.5261C60.3643 91.4905 60.3926 91.4596 60.4262 91.4352C60.5037 91.3826 60.596 91.3563 60.6895 91.3599C60.7454 91.3557 60.8016 91.3642 60.8537 91.3848C60.9059 91.4055 60.9526 91.4377 60.9905 91.4791C61.0625 91.5719 61.0981 91.6879 61.0908 91.8052V91.9745H60.7209C60.5188 91.9632 60.3191 92.0231 60.1566 92.1438C60.0854 92.2041 60.0295 92.2804 59.9935 92.3666C59.9575 92.4527 59.9425 92.5461 59.9497 92.6392C59.9425 92.7225 59.9553 92.8063 59.9869 92.8838C60.0185 92.9612 60.0681 93.03 60.1315 93.0844C60.2556 93.1788 60.4084 93.2276 60.5641 93.2224C60.676 93.2246 60.7871 93.2032 60.8902 93.1597C60.967 93.1302 61.0358 93.0829 61.0908 93.0217V93.122C61.0907 93.1317 61.0927 93.1412 61.0966 93.15C61.1004 93.1588 61.1061 93.1667 61.1131 93.1732C61.1202 93.1797 61.1286 93.1846 61.1377 93.1877C61.1468 93.1908 61.1564 93.1919 61.166 93.191H61.2914C61.301 93.1919 61.3106 93.1908 61.3197 93.1877C61.3288 93.1846 61.3372 93.1797 61.3443 93.1732C61.3514 93.1667 61.357 93.1588 61.3609 93.15C61.3647 93.1412 61.3667 93.1317 61.3666 93.122V91.8177C61.3735 91.6343 61.3108 91.4551 61.1911 91.316C61.1273 91.2504 61.0499 91.1996 60.9643 91.1671C60.8787 91.1346 60.7871 91.1212 60.6958 91.1279M61.0908 92.2253V92.5827C61.0948 92.6411 61.0836 92.6995 61.0583 92.7523C61.0331 92.805 60.9946 92.8503 60.9466 92.8837C60.8479 92.9596 60.7262 92.9995 60.6018 92.9966C60.5024 93.0004 60.4048 92.9694 60.3259 92.9088C60.289 92.8761 60.2603 92.8353 60.2418 92.7896C60.2233 92.7439 60.2156 92.6946 60.2193 92.6455C60.2153 92.5859 60.2258 92.5263 60.2498 92.4718C60.2738 92.4172 60.3107 92.3692 60.3573 92.3319C60.4663 92.2585 60.5957 92.2212 60.7272 92.2253H61.0908Z" fill="white"/>
<path d="M1.02814 73.6762H0.238161C0.205651 73.6707 0.172312 73.6731 0.140916 73.6832C0.109521 73.6932 0.0809762 73.7106 0.0576676 73.7339C0.034359 73.7573 0.0169624 73.7858 0.00691657 73.8172C-0.00312931 73.8486 -0.00553394 73.882 -8.62142e-05 73.9145V85.7601C-8.62142e-05 85.9231 0.075152 86.0047 0.238161 86.0047H1.02814C1.06099 86.009 1.0944 86.0056 1.12571 85.9947C1.15701 85.9838 1.18535 85.9658 1.20848 85.9421C1.2316 85.9183 1.24888 85.8895 1.25893 85.8579C1.26898 85.8263 1.27153 85.7928 1.26637 85.7601V73.9145C1.27046 73.8822 1.26711 73.8494 1.25658 73.8187C1.24605 73.7879 1.22862 73.7599 1.20563 73.7369C1.18263 73.7139 1.15468 73.6965 1.12392 73.686C1.09315 73.6755 1.0604 73.6721 1.02814 73.6762Z" fill="white"/>
<path d="M13.6303 73.6762H12.8403C12.8078 73.6707 12.7744 73.6731 12.743 73.6832C12.7116 73.6932 12.6831 73.7106 12.6598 73.7339C12.6365 73.7573 12.6191 73.7858 12.609 73.8172C12.599 73.8486 12.5966 73.882 12.602 73.9145V83.0386C12.602 83.0887 12.602 83.1138 12.5644 83.1201C12.5268 83.1264 12.5143 83.1201 12.4829 83.1201L6.12555 73.8455C6.10181 73.7902 6.06102 73.744 6.00913 73.7135C5.95725 73.683 5.89699 73.67 5.83715 73.6762H4.97821C4.94548 73.671 4.91199 73.6736 4.88041 73.6836C4.84884 73.6937 4.82004 73.711 4.7963 73.7341C4.77257 73.7572 4.75455 73.7856 4.74369 73.8169C4.73282 73.8482 4.7294 73.8816 4.7337 73.9145V85.7601C4.7283 85.7934 4.7309 85.8276 4.74128 85.8597C4.75165 85.8919 4.76952 85.9211 4.7934 85.945C4.81727 85.9688 4.84648 85.9867 4.87862 85.9971C4.91075 86.0075 4.94488 86.0101 4.97821 86.0047H5.76819C5.80105 86.009 5.83445 86.0056 5.86576 85.9947C5.89706 85.9838 5.9254 85.9658 5.94853 85.9421C5.97166 85.9183 5.98893 85.8895 5.99898 85.8579C6.00903 85.8263 6.01158 85.7928 6.00643 85.7601V76.5733C6.00643 76.5231 6.00643 76.4981 6.03778 76.4918C6.05387 76.4889 6.07043 76.4903 6.08582 76.4958C6.10121 76.5013 6.1149 76.5107 6.12555 76.5231L12.4829 85.8354C12.5058 85.8913 12.5464 85.9381 12.5985 85.9687C12.6506 85.9993 12.7113 86.0119 12.7713 86.0047H13.6303C13.6631 86.009 13.6965 86.0056 13.7278 85.9947C13.7591 85.9838 13.7875 85.9658 13.8106 85.9421C13.8337 85.9183 13.851 85.8895 13.861 85.8579C13.8711 85.8263 13.8737 85.7928 13.8685 85.7601V73.9145C13.8726 73.8822 13.8692 73.8494 13.8587 73.8187C13.8482 73.7879 13.8307 73.7599 13.8078 73.7369C13.7848 73.7139 13.7568 73.6965 13.726 73.686C13.6953 73.6755 13.6625 73.6721 13.6303 73.6762Z" fill="white"/>
<path d="M40.182 73.7953H30.9908C30.958 73.791 30.9246 73.7944 30.8933 73.8052C30.862 73.8161 30.8336 73.8341 30.8105 73.8579C30.7874 73.8816 30.7701 73.9104 30.76 73.942C30.75 73.9736 30.7474 74.0071 30.7526 74.0398V74.6669C30.7474 74.6996 30.75 74.7331 30.76 74.7647C30.7701 74.7963 30.7874 74.8251 30.8105 74.8489C30.8336 74.8726 30.862 74.8906 30.8933 74.9015C30.9246 74.9124 30.958 74.9158 30.9908 74.9115H34.7526C34.7654 74.9093 34.7786 74.9102 34.791 74.9142C34.8034 74.9181 34.8147 74.925 34.8239 74.9342C34.8331 74.9434 34.84 74.9547 34.8439 74.9671C34.8479 74.9795 34.8488 74.9927 34.8466 75.0055V85.8604C34.8415 85.8931 34.844 85.9266 34.8541 85.9582C34.8641 85.9898 34.8814 86.0186 34.9045 86.0423C34.9277 86.0661 34.956 86.0841 34.9873 86.0949C35.0186 86.1058 35.052 86.1092 35.0849 86.1049H35.8748C36.0378 86.1049 36.1131 86.0234 36.1131 85.8604V75.0369C36.1131 74.9742 36.1444 74.9428 36.2134 74.9428H40.182C40.3451 74.9428 40.4203 74.8613 40.4203 74.6983V74.0712C40.4203 73.9081 40.3451 73.8266 40.182 73.8266" fill="white"/>
<path d="M45.1597 85.8919V74.0337C45.1638 74.0014 45.1604 73.9686 45.1499 73.9379C45.1393 73.9071 45.1219 73.8791 45.0989 73.8561C45.0759 73.8331 45.048 73.8157 45.0172 73.8052C44.9865 73.7947 44.9537 73.7913 44.9214 73.7954H44.1315C44.0992 73.7913 44.0664 73.7947 44.0357 73.8052C44.0049 73.8157 43.977 73.8331 43.954 73.8561C43.931 73.8791 43.9135 73.9071 43.903 73.9379C43.8925 73.9686 43.8891 74.0014 43.8932 74.0337V85.8919C43.8881 85.9246 43.8906 85.9581 43.9007 85.9897C43.9107 86.0213 43.928 86.0501 43.9511 86.0738C43.9742 86.0975 44.0026 86.1156 44.0339 86.1264C44.0652 86.1373 44.0986 86.1407 44.1315 86.1364H44.9214C44.9543 86.1407 44.9877 86.1373 45.019 86.1264C45.0503 86.1156 45.0786 86.0975 45.1018 86.0738C45.1249 86.0501 45.1422 86.0213 45.1522 85.9897C45.1623 85.9581 45.1648 85.9246 45.1597 85.8919Z" fill="white"/>
<path d="M53.2415 73.7953C52.6274 73.7646 52.0135 73.86 51.4377 74.0757C50.8618 74.2914 50.3363 74.6228 49.8935 75.0495C49.4672 75.5016 49.1364 76.0351 48.9209 76.618C48.7055 77.2009 48.6098 77.8213 48.6396 78.442V81.4269C48.6104 82.0486 48.7063 82.6698 48.9217 83.2536C49.1371 83.8374 49.4676 84.3721 49.8935 84.8257C50.8148 85.656 52.0108 86.1154 53.2509 86.1154C54.4909 86.1154 55.687 85.656 56.6082 84.8257C57.0356 84.3756 57.3671 83.8434 57.5826 83.2613C57.7982 82.6792 57.8933 82.0594 57.8622 81.4395V81.2451C57.8622 81.0758 57.7869 80.9943 57.6302 80.9943L56.8465 80.9504C56.8136 80.9461 56.7802 80.9495 56.7489 80.9603C56.7176 80.9712 56.6893 80.9892 56.6661 81.013C56.643 81.0367 56.6257 81.0655 56.6157 81.0971C56.6056 81.1287 56.6031 81.1622 56.6082 81.1949V81.4896C56.6295 81.9481 56.559 82.4061 56.4007 82.8369C56.2424 83.2677 55.9996 83.6624 55.6866 83.998C55.3651 84.3178 54.9805 84.5671 54.5574 84.7302C54.1343 84.8932 53.6818 84.9663 53.2289 84.9449C52.7799 84.9651 52.3316 84.8913 51.9127 84.7283C51.4938 84.5652 51.1136 84.3165 50.7963 83.998C50.481 83.6638 50.2363 83.2694 50.0769 82.8384C49.9174 82.4074 49.8465 81.9487 49.8684 81.4896V78.3542C49.8458 77.8951 49.9164 77.4362 50.0758 77.0051C50.2353 76.574 50.4804 76.1797 50.7963 75.8459C51.1148 75.5295 51.4954 75.2825 51.9141 75.1206C52.3328 74.9587 52.7805 74.8854 53.2289 74.9053C53.6792 74.8859 54.1286 74.9594 54.5493 75.1213C54.9699 75.2831 55.3528 75.5297 55.6741 75.8459C55.9923 76.1783 56.2394 76.5723 56.4 77.0036C56.5606 77.4349 56.6315 77.8945 56.6082 78.3542V78.6991C56.6031 78.7319 56.6056 78.7654 56.6157 78.7969C56.6257 78.8285 56.643 78.8573 56.6661 78.8811C56.6893 78.9048 56.7176 78.9228 56.7489 78.9337C56.7802 78.9446 56.8136 78.948 56.8465 78.9437L57.6302 78.8935C57.661 78.8924 57.6913 78.8852 57.7192 78.8723C57.7472 78.8594 57.7724 78.841 57.7932 78.8183C57.841 78.7652 57.8658 78.6953 57.8622 78.6239V78.4044C57.8914 77.7875 57.7954 77.171 57.5799 76.5923C57.3644 76.0135 57.0338 75.4844 56.6082 75.037C56.163 74.6082 55.6343 74.2757 55.0552 74.0599C54.476 73.8441 53.8586 73.7498 53.2415 73.7828" fill="white"/>
<path d="M66.4013 74.0524C66.3836 73.9773 66.3399 73.9109 66.2779 73.8649C66.216 73.819 66.1397 73.7966 66.0627 73.8016H65.2665C65.1904 73.7963 65.1148 73.8178 65.0529 73.8625C64.991 73.9072 64.9468 73.9722 64.9279 74.0461L61.3543 85.7663C61.3426 85.8106 61.3416 85.857 61.3514 85.9017C61.3612 85.9464 61.3816 85.9881 61.4107 86.0234C61.4405 86.0585 61.4782 86.0858 61.5208 86.1033C61.5633 86.1207 61.6094 86.1278 61.6552 86.1238H62.2821L68.3699 84.8069L68.6959 85.8604C68.7083 85.938 68.7493 86.008 68.8108 86.0568C68.8724 86.1056 68.9499 86.1295 69.0282 86.1238H69.6552C69.8934 86.1238 69.9749 85.9796 69.9749 85.8479L66.4013 74.0524ZM62.8401 84.7128L65.6552 75.7455L68.1191 83.5966L62.8401 84.7128Z" fill="white"/>
<path d="M26.9344 75.1122C25.9709 74.2982 24.7404 73.8693 23.4798 73.9082C22.3911 73.8955 21.3199 74.1818 20.3826 74.7359C19.465 75.2653 18.7003 76.0237 18.1632 76.937C17.6109 77.8591 17.3245 78.9161 17.3356 79.9909C17.32 81.0665 17.5905 82.1269 18.1193 83.0636C18.6288 83.967 19.3743 84.7149 20.276 85.2271C21.1352 85.7053 22.0959 85.9718 23.0785 86.0046H23.4484C24.1965 86.003 24.938 85.8649 25.6365 85.597C25.9653 85.4689 26.2857 85.3202 26.5958 85.1518L27.1726 84.7944C27.2005 84.7811 27.2252 84.7618 27.2447 84.7378C27.2642 84.7138 27.278 84.6857 27.2853 84.6556C27.2925 84.6255 27.2929 84.5942 27.2864 84.564C27.2799 84.5337 27.2667 84.5053 27.2478 84.4808L26.8591 83.7722C26.8468 83.7434 26.828 83.7178 26.8041 83.6976C26.7801 83.6773 26.7518 83.663 26.7213 83.6557C26.6908 83.6483 26.6591 83.6483 26.6286 83.6554C26.5981 83.6626 26.5696 83.6768 26.5456 83.697L26.4955 83.7283C26.3365 83.8403 26.1711 83.9429 26.0002 84.0356C25.7736 84.1634 25.5391 84.2766 25.298 84.3742C24.6039 84.6562 23.8541 84.7741 23.107 84.7186C22.3598 84.6631 21.6356 84.4358 20.9908 84.0544C20.2799 83.6425 19.6931 83.0469 19.2917 82.3299L24.9344 80.1539L28.5644 78.7555L28.8654 78.6364C28.9112 78.625 28.9517 78.5982 28.9802 78.5606C29.0087 78.5229 29.0235 78.4767 29.0221 78.4295C28.9136 78.1065 28.7859 77.7903 28.6397 77.4826C28.2397 76.5837 27.6617 75.7752 26.9406 75.1059M18.7901 81.1949C18.7099 80.8303 18.6679 80.4583 18.6647 80.085C18.6481 79.216 18.8614 78.3581 19.2831 77.5983C19.7048 76.8384 20.3199 76.2035 21.066 75.7581C21.8045 75.3106 22.6541 75.0802 23.5174 75.0934C24.4495 75.0637 25.3607 75.3734 26.0817 75.965C26.6829 76.4708 27.1719 77.0966 27.5174 77.8024L18.7901 81.1949Z" fill="white"/>
<path d="M46.2948 27.5166C43.4768 25.1962 39.9117 23.9793 36.2634 24.0927C32.8925 24.0479 29.5764 24.9471 26.6897 26.6888C23.8684 28.4015 21.5261 30.8004 19.881 33.662C18.1538 36.6814 17.2723 40.1106 17.3293 43.5888C17.3359 45.0462 17.4977 46.4988 17.812 47.9219L51.8935 34.6716C50.5522 31.9186 48.6443 29.4803 46.2948 27.5166Z" fill="white"/>
<path d="M15.4045 31.2789C17.5114 27.7186 20.4943 24.7567 24.0691 22.6753C27.7348 20.5217 31.9185 19.4095 36.1694 19.4584C41.5237 19.4584 46.0169 21.0261 49.6491 24.1615C52.276 26.4316 54.602 29.8053 56.3011 33.4236C56.8709 34.6336 57.3711 35.8751 57.7995 37.1422C57.8011 37.3257 57.7397 37.5043 57.6256 37.648C57.5116 37.7918 57.3516 37.8921 57.1726 37.9323L56.0002 38.3901L41.8309 43.8645L19.7933 52.3615C21.3586 55.1611 23.653 57.4842 26.4328 59.0839C27.0385 59.4567 27.6666 59.7918 28.3136 60.0872C30.4647 60.6077 32.6711 60.8646 34.8842 60.8522H34.997C41.8434 60.8522 47.346 58.762 51.5049 54.5814C55.6637 50.4008 57.7619 44.8365 57.7995 37.8884V22.8948C57.7995 16.0261 55.7201 10.4932 51.5613 6.29587C49.5123 4.22576 47.0429 2.61976 44.3199 1.58646C44.0879 1.49867 43.8434 1.43596 43.6052 1.35444C40.8526 0.427584 37.9639 -0.0302855 35.0597 -6.05309e-05H34.9469C28.1005 -6.05309e-05 22.5979 2.09022 18.439 6.27079C14.2802 10.4514 12.1903 16.024 12.1694 22.9889V37.9887C12.1694 38.9419 12.2196 39.87 12.2948 40.7604C12.6113 37.4075 13.6738 34.1679 15.4045 31.2789Z" fill="white"/>
</g>
<defs>
<clipPath id="clip0_136_38">
<rect width="70" height="94" fill="white"/>
</clipPath>
</defs>
</svg>
